<?xml version="1.0" encoding="UTF-8" standalone="no"?>
<svg
   xmlns:dc="http://purl.org/dc/elements/1.1/"
   xmlns:cc="http://creativecommons.org/ns#"
   xmlns:rdf="http://www.w3.org/1999/02/22-rdf-syntax-ns#"
   xmlns:svg="http://www.w3.org/2000/svg"
   xmlns="http://www.w3.org/2000/svg"
   viewBox="0 0 667.62665 667.33331"
   height="667.33331"
   width="667.62665"
   xml:space="preserve"
   id="svg2"
   version="1.1"><metadata
     id="metadata8"><rdf:RDF><cc:Work
         rdf:about=""><dc:format>image/svg+xml</dc:format><dc:type
           rdf:resource="http://purl.org/dc/dcmitype/StillImage" /></cc:Work></rdf:RDF></metadata><defs
     id="defs6"><clipPath
       id="clipPath20"
       clipPathUnits="userSpaceOnUse"><path
         id="path18"
         d="M 0,5000 H 5007 V 0 H 0 Z" /></clipPath></defs><g
     transform="matrix(1.3333333,0,0,-1.3333333,0,667.33333)"
     id="g10"><g
       transform="scale(0.1)"
       id="g12"><g
         id="g14"><g
           clip-path="url(#clipPath20)"
           id="g16"><path
             id="path22"
             style="fill:#137EA7;fill-opacity:1;fill-rule:nonzero;stroke:none"
             d="M 7.16016,0 H 5007.1602 V 5000 H 7.16016 Z" /><path
             id="path24"
             style="fill:#158CBA;fill-opacity:1;fill-rule:nonzero;stroke:none"
             d="M 5012.09,1545.01 4410.41,5005 H 3377.57 L 4093.81,886.191 H 3081.28 L 2365.04,5005 H 1332.21 L 2048.45,886.191 H 1035.92 L 320.398,5000.86 310.547,4999.14 1027.51,876.191 H 2060.34 L 1344.1,4995 H 2356.63 L 3072.87,876.191 H 4105.7 L 3389.46,4995 H 4402 l 600.24,-3451.71 9.85,1.72" /><path
             id="path26"
             style="fill:#158CBA;fill-opacity:1;fill-rule:nonzero;stroke:none"
             d="M 5007.16,965.75 H 7.16016 V 0 H 5007.16 v 965.75" /><path
             id="path28"
             style="fill:#158CBA;fill-opacity:1;fill-rule:nonzero;stroke:none"
             d="m 4884.18,2517.71 c -27.15,-5.82 -89.24,-25.22 -89.24,7.76 0,32.99 31.04,29.11 31.04,29.11 0,0 85.37,-31.04 58.2,-36.87 z m -161.03,283.28 c 0,23.28 83.43,62.09 83.43,62.09 31.04,3.88 46.56,-44.63 25.22,-78.56 -21.35,-33.93 -108.65,-6.81 -108.65,16.47 z m -275.52,-339.54 c -15.52,-21.34 -44.63,-48.51 -67.91,-44.62 -23.28,3.87 -9.7,52.54 -9.7,52.54 2.63,12.63 93.13,13.42 77.61,-7.92 z m 40.74,337.6 c -17.46,-9.7 -67.9,-27.17 -65.96,0 1.94,27.17 32.98,34.92 32.98,34.92 0,0 50.44,-25.22 32.98,-34.92 z m 234.78,337.6 c 0,0 31.04,-25.22 11.64,-50.44 -19.41,-25.23 -50.45,-29.11 -50.45,0 0,29.1 38.81,50.44 38.81,50.44 z m 166.21,-481.62 c -49.13,-17.2 -166.19,-47.6 -140.8,15.87 25.39,63.47 114.25,69.82 136.46,126.95 22.22,57.13 -47.59,193.6 -60.29,149.16 -12.7,-44.43 -155.52,-120.59 -142.82,-63.47 12.69,57.13 111.08,79.35 117.43,136.47 6.35,57.13 -38.09,139.64 -60.3,158.69 -22.22,19.04 -171.38,-50.78 -190.42,-120.6 -19.05,-69.83 95.2,-146 38.08,-199.95 -57.13,-53.95 -79.34,66.65 -123.78,60.3 -44.43,-6.35 -177.72,-206.29 -136.46,-269.76 41.26,-63.48 155.51,28.56 190.42,-19.05 34.91,-47.6 -57.13,-126.94 -136.48,-82.51 -79.33,44.43 -101.55,63.47 -98.37,-44.43 3.17,-107.91 98.37,-209.47 136.46,-215.82 38.09,-6.34 126.95,114.26 126.95,114.26 l -126.95,-644.27 h 38.09 l 123.78,606.19 c 0,0 38.07,-117.44 120.59,-126.96 82.52,-9.52 215.81,60.31 130.13,88.87 -85.7,28.57 -177.74,133.29 -149.17,144.4 28.56,11.12 187.24,-99.97 218.98,-61.88 31.74,38.08 42.65,119.3 44.44,180.9 1.96,67.4 -39.91,72.27 -55.97,66.64" /><path
             id="path30"
             style="fill:#158CBA;fill-opacity:1;fill-rule:nonzero;stroke:none"
             d="m 3846.64,2471.06 c 0,0 27.8,3.48 27.8,-26.05 0,-29.53 -55.59,-12.16 -79.91,-6.94 -24.32,5.2 52.11,32.99 52.11,32.99 z m -5.21,205.88 c -19.11,30.37 -5.21,73.8 22.59,70.33 0,0 74.69,-34.74 74.69,-55.59 0,-20.85 -78.17,-45.12 -97.28,-14.74 z m 413.44,-282.15 c 0,0 12.16,-43.58 -8.69,-47.06 -20.84,-3.47 -46.9,20.84 -60.8,39.96 -13.89,19.11 67.12,18.39 69.49,7.1 z m -76.44,326.42 c 0,0 27.79,-6.95 29.53,-31.26 1.74,-24.33 -43.43,-8.69 -59.06,0 -15.63,8.68 29.53,31.26 29.53,31.26 z m -204.98,225.83 c 0,-26.06 -27.79,-22.59 -45.17,0 -17.37,22.58 10.43,45.16 10.43,45.16 0,0 34.74,-19.1 34.74,-45.16 z m -233.66,-445.7 c 1.6,-55.15 11.37,-127.87 39.77,-161.97 28.42,-34.1 170.49,65.37 196.07,55.42 25.57,-9.96 -56.83,-103.73 -133.55,-129.29 -76.72,-25.58 42.62,-88.09 116.5,-79.56 73.87,8.52 107.98,113.65 107.98,113.65 l 110.81,-542.72 h 34.1 l -113.66,576.82 c 0,0 79.56,-107.98 113.66,-102.29 34.1,5.68 119.33,96.61 122.18,193.22 2.84,96.61 -17.04,79.56 -88.08,39.77 -71.04,-39.77 -153.45,31.26 -122.19,73.89 31.26,42.62 133.55,-39.78 170.49,17.04 36.93,56.83 -82.4,235.84 -122.19,241.53 -39.77,5.68 -59.66,-102.3 -110.81,-53.99 -51.15,48.3 51.15,116.5 34.09,179.01 -17.04,62.51 -150.59,125.02 -170.47,107.97 -19.9,-17.05 -59.68,-90.92 -54,-142.07 5.69,-51.14 93.77,-71.03 105.14,-122.18 11.37,-51.15 -116.51,17.05 -127.86,56.83 -11.37,39.78 -73.88,-82.41 -54,-133.55 19.9,-51.15 99.46,-56.83 122.19,-113.66 22.73,-56.83 -82.08,-29.61 -126.06,-14.2 -14.38,5.03 -51.87,0.67 -50.11,-59.67" /><path
             id="path32"
             style="fill:#158CBA;fill-opacity:1;fill-rule:nonzero;stroke:none"
             d="m 4016.98,1756.87 h 724.19 L 4527.92,932.582 h -382.31 l -128.63,824.288" /><path
             id="path34"
             style="fill:#158CBA;fill-opacity:1;fill-rule:nonzero;stroke:none"
             d="m 2699.85,3336.95 c -27.17,-5.82 -89.26,-25.22 -89.26,7.77 0,32.98 31.04,29.1 31.04,29.1 0,0 85.38,-31.05 58.22,-36.87 z m -161.05,283.28 c 0,23.28 83.43,62.09 83.43,62.09 31.05,3.88 46.57,-44.63 25.22,-78.56 -21.33,-33.93 -108.65,-6.81 -108.65,16.47 z m -275.51,-339.54 c -15.52,-21.34 -44.62,-48.51 -67.91,-44.63 -23.28,3.88 -9.7,52.55 -9.7,52.55 2.63,12.63 93.13,13.42 77.61,-7.92 z m 40.75,337.6 c -17.47,-9.7 -67.91,-27.16 -65.97,0 1.94,27.16 32.98,34.92 32.98,34.92 0,0 50.45,-25.22 32.99,-34.92 z m 234.76,337.6 c 0,0 31.05,-25.22 11.64,-50.45 -19.4,-25.22 -50.44,-29.1 -50.44,0 0,29.11 38.8,50.45 38.8,50.45 z m 166.21,-481.62 c -49.12,-17.2 -166.19,-47.6 -140.8,15.87 25.39,63.48 114.26,69.83 136.48,126.95 22.21,57.13 -47.61,193.59 -60.31,149.16 -12.69,-44.43 -155.51,-120.6 -142.81,-63.47 12.69,57.13 111.08,79.34 117.42,136.47 6.35,57.13 -38.08,139.64 -60.3,158.68 -22.22,19.05 -171.38,-50.78 -190.41,-120.6 -19.05,-69.82 95.21,-145.99 38.08,-199.94 -57.13,-53.95 -79.34,66.65 -123.78,60.3 -44.43,-6.35 -177.72,-206.29 -136.47,-269.77 41.26,-63.47 155.52,28.57 190.43,-19.04 34.91,-47.6 -57.13,-126.94 -136.47,-82.51 -79.34,44.43 -101.56,63.47 -98.39,-44.43 3.18,-107.91 98.39,-209.47 136.47,-215.82 38.09,-6.34 126.95,114.26 126.95,114.26 l -126.95,-644.26 h 38.09 l 123.77,606.17 c 0,0 38.09,-117.42 120.6,-126.94 82.51,-9.52 215.82,60.29 130.12,88.86 -85.69,28.56 -177.72,133.29 -149.16,144.4 28.57,11.12 187.25,-99.97 218.99,-61.89 31.73,38.09 42.63,119.31 44.43,180.91 1.95,67.4 -39.91,72.27 -55.98,66.64" /><path
             id="path36"
             style="fill:#158CBA;fill-opacity:1;fill-rule:nonzero;stroke:none"
             d="m 1662.3,3290.31 c 0,0 27.8,3.47 27.8,-26.06 0,-29.53 -55.59,-12.16 -79.91,-6.94 -24.32,5.2 52.11,33 52.11,33 m -5.21,205.87 c -19.11,30.38 -5.21,73.81 22.58,70.33 0,0 74.7,-34.74 74.7,-55.59 0,-20.84 -78.17,-45.12 -97.28,-14.74 m 413.43,-282.16 c 0,0 12.16,-43.57 -8.68,-47.05 -20.84,-3.47 -46.9,20.85 -60.8,39.96 -13.9,19.11 67.13,18.4 69.48,7.09 m -76.43,326.43 c 0,0 27.79,-6.94 29.53,-31.27 1.74,-24.32 -43.43,-8.68 -59.06,0 -15.64,8.69 29.53,31.27 29.53,31.27 m -204.98,225.83 c 0,-26.06 -27.79,-22.58 -45.17,0 -17.36,22.58 10.43,45.16 10.43,45.16 0,0 34.74,-19.11 34.74,-45.16 m -233.66,-445.7 c 1.6,-55.15 11.37,-127.87 39.78,-161.97 15.62,-18.74 65.58,2.87 111.66,24.48 37.74,17.71 72.88,35.41 84.4,30.93 25.57,-9.94 -56.83,-103.71 -133.55,-129.28 -76.72,-25.57 42.62,-88.09 116.5,-79.56 73.87,8.52 107.97,113.65 107.97,113.65 l 110.82,-542.71 h 34.1 l -113.66,576.81 c 0,0 79.56,-107.97 113.66,-102.29 34.09,5.68 119.34,96.61 122.18,193.22 2.84,96.61 -17.05,79.56 -88.09,39.78 -71.03,-39.78 -153.43,31.25 -122.18,73.88 14.79,20.16 45.48,12.34 77.62,4.52 35.8,-8.71 73.41,-17.42 92.87,12.53 36.94,56.82 -82.4,235.84 -122.18,241.51 -16.75,2.4 -29.98,-15.36 -43.49,-33.12 -18.58,-24.41 -37.72,-48.83 -67.33,-20.86 -51.15,48.31 51.14,116.5 34.1,179.01 -17.05,62.51 -150.6,125.02 -170.49,107.97 -19.89,-17.04 -59.67,-90.92 -53.98,-142.07 5.67,-51.14 93.76,-71.03 105.13,-122.18 11.36,-51.15 -116.5,17.05 -127.87,56.83 -11.37,39.78 -73.88,-82.4 -53.99,-133.55 19.9,-51.15 99.45,-56.83 122.19,-113.66 22.73,-56.82 -82.08,-29.61 -126.06,-14.21 -14.38,5.04 -51.86,0.68 -50.11,-59.66" /><path
             id="path38"
             style="fill:#158CBA;fill-opacity:1;fill-rule:nonzero;stroke:none"
             d="m 1832.63,2576.12 h 724.19 l -213.24,-824.3 h -382.31 l -128.64,824.3" /><path
             id="path40"
             style="fill:#158CBA;fill-opacity:1;fill-rule:nonzero;stroke:none"
             d="m 768.352,1016.48 -244.629,415.68 141.3,240.1 H 768.352 Z M 382.426,1672.26 H 634.184 L 508.305,1458.36 Z M 236.789,997 v 675.26 h 114.797 l 141.301,-240.1 z M 7.16016,1978.86 c -5.48828,-39.9 0,-119.66 0,-119.66 V 1672.26 H 183.633 V 910.18 h 53.156 v 34.422 L 508.305,1405.96 768.352,964.078 V 910.18 h 53.156 v 762.08 h 153.398 v 186.94 h -11.64 c 36.874,0 66.764,29.88 66.764,66.76 h 83.69 v 52.9 H 7.16016" /><path
             id="path42"
             style="fill:#137EA7;fill-opacity:1;fill-rule:nonzero;stroke:none"
             d="m 2386.45,569.469 c 0,-27.778 -267.44,-50.297 -597.34,-50.297 -329.9,0 -597.34,22.519 -597.34,50.297 0,27.793 267.44,50.312 597.34,50.312 329.9,0 597.34,-22.519 597.34,-50.312" /><path
             id="path44"
             style="fill:#158CBA;fill-opacity:1;fill-rule:nonzero;stroke:none"
             d="M 1264.32,3682.54 H 397.68 v 506.59 h 866.64 v -506.59" /><path
             id="path46"
             style="fill:#137EA7;fill-opacity:1;fill-rule:nonzero;stroke:none"
             d="M 1154.16,3782 H 504.531 v 307.66 H 1154.16 V 3782" /><path
             id="path48"
             style="fill:#158CBA;fill-opacity:1;fill-rule:nonzero;stroke:none"
             d="m 4720.98,3682.54 h -866.63 v 506.59 h 866.63 v -506.59" /><path
             id="path50"
             style="fill:#137EA7;fill-opacity:1;fill-rule:nonzero;stroke:none"
             d="M 4610.83,3782 H 3961.2 v 307.66 h 649.63 V 3782" /></g></g><path
         id="path52"
         style="fill:#0b0c0c;fill-opacity:1;fill-rule:nonzero;stroke:none"
         d="m 2348.36,2436.73 -58.08,-295.72 h 494.55 l -9.6,254.56 -426.87,41.16" /><path
         id="path54"
         style="fill:#a29fbe;fill-opacity:1;fill-rule:nonzero;stroke:none"
         d="m 3103.44,2770.88 h -842.65 l 110.31,-618.01 h 832.4 l -100.06,618.01" /><path
         id="path56"
         style="fill:#d9d6e4;fill-opacity:1;fill-rule:nonzero;stroke:none"
         d="m 3129.2,2783.03 h -842.65 l 110.31,-618.02 h 832.4 l -100.06,618.02" /><path
         id="path58"
         style="fill:#0b0c0c;fill-opacity:1;fill-rule:nonzero;stroke:none"
         d="m 2286.55,2783.03 94.19,-527.68 h 833.86 l -85.4,527.68 h -842.65" /><path
         id="path60"
         style="fill:#ffffff;fill-opacity:1;fill-rule:nonzero;stroke:none"
         d="m 3096.79,2747.06 h -754.64 l 98.79,-546.08 h 745.46 l -89.61,546.08" /><path
         id="path62"
         style="fill:#e9ebeb;fill-opacity:1;fill-rule:nonzero;stroke:none"
         d="m 2724.77,2717.31 -369.16,74.08 -5.27,-276.83 364.66,-73.17 9.77,275.92" /><path
         id="path64"
         style="fill:#f7f7f8;fill-opacity:1;fill-rule:nonzero;stroke:none"
         d="m 2686.72,2669.65 -297.94,59.79 0.97,24.36 297.84,-59.76 -0.87,-24.39" /><path
         id="path66"
         style="fill:#f7f7f8;fill-opacity:1;fill-rule:nonzero;stroke:none"
         d="m 2686.08,2634.15 -297.95,59.79 0.98,24.36 297.83,-59.77 -0.86,-24.38" /><path
         id="path68"
         style="fill:#f7f7f8;fill-opacity:1;fill-rule:nonzero;stroke:none"
         d="m 2685.43,2598.64 -297.94,59.79 0.98,24.36 297.82,-59.76 -0.86,-24.39" /><path
         id="path70"
         style="fill:#f7f7f8;fill-opacity:1;fill-rule:nonzero;stroke:none"
         d="m 2684.79,2563.13 -297.95,59.79 0.98,24.36 297.83,-59.76 -0.86,-24.39" /><path
         id="path72"
         style="fill:#f7f7f8;fill-opacity:1;fill-rule:nonzero;stroke:none"
         d="m 2684.14,2527.63 -297.94,59.79 0.98,24.36 297.82,-59.76 -0.86,-24.39" /><path
         id="path74"
         style="fill:#f7f7f8;fill-opacity:1;fill-rule:nonzero;stroke:none"
         d="m 2683.5,2492.12 -297.95,59.79 0.98,24.37 297.83,-59.77 -0.86,-24.39" /><path
         id="path76"
         style="fill:#e9ebeb;fill-opacity:1;fill-rule:nonzero;stroke:none"
         d="m 2727.12,2445.73 -358.97,-113.57 79.22,-149.67 354.61,112.19 -74.86,151.05" /><path
         id="path78"
         style="fill:#e9ebeb;fill-opacity:1;fill-rule:nonzero;stroke:none"
         d="m 3066.77,2710.97 h -255.21 l 49.28,-272.45 h 250.64 l -44.71,272.45" /><path
         id="path80"
         style="fill:#e9ebeb;fill-opacity:1;fill-rule:nonzero;stroke:none"
         d="M 3115.79,2408.95 H 2865.62 L 2896,2242.34 h 245.6 l -25.81,166.61" /><path
         id="path82"
         style="fill:#e9ebeb;fill-opacity:1;fill-rule:nonzero;stroke:none"
         d="m 2283.77,2695.82 -244.03,55.13 -7.08,-169.2 239.57,-54.12 11.54,168.19" /><path
         id="path84"
         style="fill:#a29fbe;fill-opacity:1;fill-rule:nonzero;stroke:none"
         d="m 2260.79,2770.88 25.76,12.15 3.73,-20.9 z" /><path
         id="path86"
         style="fill:#f7f7f8;fill-opacity:1;fill-rule:nonzero;stroke:none"
         d="M 3050.56,2662.19 H 2845.5 l -3.84,24.07 h 204.94 l 3.96,-24.07" /><path
         id="path88"
         style="fill:#f7f7f8;fill-opacity:1;fill-rule:nonzero;stroke:none"
         d="m 3056.91,2627.25 h -205.05 l -3.84,24.08 h 204.94 l 3.95,-24.08" /><path
         id="path90"
         style="fill:#f7f7f8;fill-opacity:1;fill-rule:nonzero;stroke:none"
         d="m 3063.27,2592.31 h -205.06 l -3.84,24.08 h 204.94 l 3.96,-24.08" /><path
         id="path92"
         style="fill:#f7f7f8;fill-opacity:1;fill-rule:nonzero;stroke:none"
         d="m 3069.61,2557.37 h -205.05 l -3.83,24.08 h 204.94 l 3.94,-24.08" /><path
         id="path94"
         style="fill:#f7f7f8;fill-opacity:1;fill-rule:nonzero;stroke:none"
         d="m 3075.97,2522.43 h -205.06 l -3.84,24.08 h 204.95 l 3.95,-24.08" /><path
         id="path96"
         style="fill:#f7f7f8;fill-opacity:1;fill-rule:nonzero;stroke:none"
         d="m 3082.32,2487.49 h -205.05 l -3.84,24.08 h 204.94 l 3.95,-24.08" /><path
         id="path98"
         style="fill:#e9ebeb;fill-opacity:1;fill-rule:nonzero;stroke:none"
         d="m 2084.1,3020.97 -190.88,169.41 -143.99,-236.49 187.44,-166.38 147.43,233.46" /><path
         id="path100"
         style="fill:#f7f7f8;fill-opacity:1;fill-rule:nonzero;stroke:none"
         d="m 2039.59,2995.24 -153.36,136.12 13.11,20.55 153.28,-136.04 -13.03,-20.63" /><path
         id="path102"
         style="fill:#f7f7f8;fill-opacity:1;fill-rule:nonzero;stroke:none"
         d="m 2021.15,2964.89 -153.36,136.13 13.11,20.55 153.27,-136.04 -13.02,-20.64" /><path
         id="path104"
         style="fill:#f7f7f8;fill-opacity:1;fill-rule:nonzero;stroke:none"
         d="m 2002.7,2934.55 -153.36,136.11 13.12,20.56 153.28,-136.04 -13.04,-20.63" /><path
         id="path106"
         style="fill:#f7f7f8;fill-opacity:1;fill-rule:nonzero;stroke:none"
         d="m 1984.27,2904.2 -153.37,136.12 13.12,20.55 153.27,-136.04 -13.02,-20.63" /><path
         id="path108"
         style="fill:#f7f7f8;fill-opacity:1;fill-rule:nonzero;stroke:none"
         d="m 1965.82,2873.85 -153.36,136.12 13.12,20.55 153.27,-136.04 -13.03,-20.63" /><path
         id="path110"
         style="fill:#f7f7f8;fill-opacity:1;fill-rule:nonzero;stroke:none"
         d="m 1947.38,2843.51 -153.36,136.11 13.11,20.56 153.28,-136.04 -13.03,-20.63" /><path
         id="path112"
         style="fill:#151c36;fill-opacity:1;fill-rule:nonzero;stroke:none"
         d="M 3313.7,1704.03 H 2097.22 v 233.26 H 3313.7 v -233.26" /><path
         id="path114"
         style="fill:#27429f;fill-opacity:1;fill-rule:nonzero;stroke:none"
         d="m 2733.97,1612.29 h -636.75 v 233.26 h 636.75 v -233.26" /><path
         id="path116"
         style="fill:#212b59;fill-opacity:1;fill-rule:nonzero;stroke:none"
         d="m 3313.7,1612.29 h -579.73 v 233.26 h 579.73 v -233.26" /><path
         id="path118"
         style="fill:#212b59;fill-opacity:1;fill-rule:nonzero;stroke:none"
         d="m 3729.55,824.141 h -51.62 V 2059.76 h 51.62 V 824.141" /><path
         id="path120"
         style="fill:#212b59;fill-opacity:1;fill-rule:nonzero;stroke:none"
         d="m 4282.64,1163.77 -22.25,-13.09 -556.65,945.87 22.24,13.09 556.66,-945.87" /><path
         id="path122"
         style="fill:#212b59;fill-opacity:1;fill-rule:nonzero;stroke:none"
         d="m 3703.74,1163.77 22.24,-13.09 556.66,945.87 -22.25,13.09 -556.65,-945.87" /><path
         id="path124"
         style="fill:#212b59;fill-opacity:1;fill-rule:nonzero;stroke:none"
         d="M 4297.31,916.359 H 4245.7 V 2059.76 h 51.61 V 916.359" /><path
         id="path126"
         style="fill:#27429f;fill-opacity:1;fill-rule:nonzero;stroke:none"
         d="m 2733.97,1863.29 h -636.75 v 233.26 h 636.75 v -233.26" /><path
         id="path128"
         style="fill:#443224;fill-opacity:1;fill-rule:nonzero;stroke:none"
         d="m 4102.14,1863.29 h -636.76 v 233.26 h 636.76 v -233.26" /><path
         id="path130"
         style="fill:#f5ac32;fill-opacity:1;fill-rule:nonzero;stroke:none"
         d="m 2774.83,2109.64 h -881.44 v 51.37 h 881.44 v -51.37" /><path
         id="path132"
         style="fill:#f28e12;fill-opacity:1;fill-rule:nonzero;stroke:none"
         d="M 4581.05,2109.64 H 2774.83 v 51.37 h 1806.22 v -51.37" /><path
         id="path134"
         style="fill:#151c36;fill-opacity:1;fill-rule:nonzero;stroke:none"
         d="M 4434.95,2044.81 H 2049.02 c -35.8,0 -64.82,29.03 -64.82,64.83 h 2515.58 c 0,-35.8 -29.02,-64.83 -64.83,-64.83" /><path
         id="path136"
         style="fill:#212b59;fill-opacity:1;fill-rule:nonzero;stroke:none"
         d="m 2123.03,913.57 h -51.62 v 1146.19 h 51.62 V 913.57" /><path
         id="path138"
         style="fill:#212b59;fill-opacity:1;fill-rule:nonzero;stroke:none"
         d="m 2676.12,1163.77 -22.25,-13.09 -556.65,945.87 22.24,13.09 556.66,-945.87" /><path
         id="path140"
         style="fill:#212b59;fill-opacity:1;fill-rule:nonzero;stroke:none"
         d="m 2097.22,1163.77 22.24,-13.09 556.66,945.87 -22.25,13.09 -556.65,-945.87" /><path
         id="path142"
         style="fill:#212b59;fill-opacity:1;fill-rule:nonzero;stroke:none"
         d="m 2690.78,913.57 h -51.61 v 1146.19 h 51.61 V 913.57" /><path
         id="path144"
         style="fill:#212b59;fill-opacity:1;fill-rule:nonzero;stroke:none"
         d="m 3313.7,1863.29 h -579.73 v 181.52 h 579.73 v -181.52" /><path
         id="path146"
         style="fill:#212b59;fill-opacity:1;fill-rule:nonzero;stroke:none"
         d="m 4446.26,1863.29 h -579.72 v 181.52 h 579.72 v -181.52" /><path
         id="path148"
         style="fill:#151c36;fill-opacity:1;fill-rule:nonzero;stroke:none"
         d="m 3102.14,1954.05 v 0 c 0,-7.15 -5.79,-12.94 -12.94,-12.94 h -130.73 c -7.15,0 -12.94,5.79 -12.94,12.94 0,7.14 5.79,12.93 12.94,12.93 h 130.73 c 7.15,0 12.94,-5.79 12.94,-12.93" /><path
         id="path150"
         style="fill:#151c36;fill-opacity:1;fill-rule:nonzero;stroke:none"
         d="m 4245.7,1954.05 v 0 c 0,-7.15 -5.79,-12.94 -12.93,-12.94 h -130.74 c -7.15,0 -12.94,5.79 -12.94,12.94 0,7.14 5.79,12.93 12.94,12.93 h 130.74 c 7.14,0 12.93,-5.79 12.93,-12.93" /><path
         id="path152"
         style="fill:#151c36;fill-opacity:1;fill-rule:nonzero;stroke:none"
         d="m 3102.14,1728.93 v 0 c 0,-7.15 -5.79,-12.94 -12.94,-12.94 h -130.73 c -7.15,0 -12.94,5.79 -12.94,12.94 0,7.13 5.79,12.93 12.94,12.93 h 130.73 c 7.15,0 12.94,-5.8 12.94,-12.93" /><path
         id="path154"
         style="fill:#f9ae8f;fill-opacity:1;fill-rule:nonzero;stroke:none"
         d="m 2967.85,2212.95 -42.02,54.65 59.16,45.82 34.45,-50.92 -51.59,-49.55" /><path
         id="path156"
         style="fill:#f9ae8f;fill-opacity:1;fill-rule:nonzero;stroke:none"
         d="m 3736.89,2669.96 -86.47,269.9 c 0,0 -65.55,141.9 -130.19,148.3 -64.63,6.41 -144.22,-38.38 -148.38,-155.64 -4.17,-117.26 89.4,-210.07 127.16,-233.58 37.75,-23.51 76.51,40.25 76.51,40.25 l 56.43,-251.93 104.94,182.7" /><path
         id="path158"
         style="fill:#f9ae8f;fill-opacity:1;fill-rule:nonzero;stroke:none"
         d="m 3005.14,2283.63 c 0,0 1.14,63.65 -4.35,68.11 -5.48,4.46 -21.95,49.39 -21.95,49.39 0,0 -15.77,1.37 -13.37,-20.92 2.39,-22.3 6.52,-24.01 6.52,-24.01 0,0 -81.99,91.92 -87.47,94.33 -5.49,2.4 -12.69,-3.1 -9.26,-9.61 3.43,-6.52 53.5,-71.69 53.5,-71.69 0,0 -30.87,33.96 -36.35,36.36 -5.49,2.4 -14.75,-5.14 -10.98,-15.09 0,0 -6.35,0.63 -9.24,-3.09 -1.4,-1.79 -1.24,-4.38 -0.12,-6.37 l 18.97,-33.41 c 0,0 -17.49,17.49 -20.24,18.51 -2.74,1.04 -6.52,-0.68 -7.2,-9.26 -0.69,-8.57 71.69,-101.53 71.69,-101.53 l 69.85,28.28" /><path
         id="path160"
         style="fill:#f5ac32;fill-opacity:1;fill-rule:nonzero;stroke:none"
         d="m 2943.56,1086.43 -32.69,-166.551 54.37,4.652 28.46,85.379 -50.14,76.52" /><path
         id="path162"
         style="fill:#3f55ae;fill-opacity:1;fill-rule:nonzero;stroke:none"
         d="m 3436,1843.29 c 0,0 -366.69,-258.2 -384.19,-276.65 -17.5,-18.45 -31.98,-28.97 -46.03,-126.19 -14.04,-97.22 -88.27,-469.348 -88.27,-469.348 h 65.86 l 175.92,456.948 c 29.18,16.77 409.12,92.73 384.37,143.48 -51.14,104.82 -107.66,271.76 -107.66,271.76" /><path
         id="path164"
         style="fill:#f5ac32;fill-opacity:1;fill-rule:nonzero;stroke:none"
         d="m 4306.2,1065.33 36.36,-17.24 -12.83,-53.371 -42.06,19.241 18.53,51.37" /><path
         id="path166"
         style="fill:#27429f;fill-opacity:1;fill-rule:nonzero;stroke:none"
         d="m 4348.53,914.988 c 0,0 -83.05,-21.898 -90.52,-30.058 -7.47,-8.141 2.04,-10.328 13.59,-10.328 11.54,0 104.58,0 104.58,0 l -8.69,58.546 -18.96,-18.16" /><path
         id="path168"
         style="fill:#3f55ae;fill-opacity:1;fill-rule:nonzero;stroke:none"
         d="m 3517.28,1631.68 c 0,0 205.4,-398.67 221.27,-418.54 15.87,-19.86 24.31,-35.65 118.67,-62.91 C 3951.6,1122.97 4310,998.352 4310,998.352 l 9.05,65.218 -428.46,237.01 c -12.61,31.2 -95.79,376.42 -96.4,383.45 -0.6,7.02 -276.91,-52.35 -276.91,-52.35" /><path
         id="path170"
         style="fill:#27429f;fill-opacity:1;fill-rule:nonzero;stroke:none"
         d="m 4319.05,1063.57 c 0,0 51.36,5.84 98.91,-3.79 l -52.13,-185.178 c 0,0 -37.74,88.886 -46.78,106.32 -9.05,17.43 16.14,29.108 0,82.648" /><path
         id="path172"
         style="fill:#ffffff;fill-opacity:1;fill-rule:nonzero;stroke:none"
         d="m 4372.61,873.16 c 0,0 -5.12,136.73 3.84,167.29 7.32,25 35.98,19.72 41.51,19.33 5.54,-0.4 -16.69,-185.178 -16.69,-185.178 0,0 -18.41,-4.672 -28.66,-1.442" /><path
         id="path174"
         style="fill:#d9d6e4;fill-opacity:1;fill-rule:nonzero;stroke:none"
         d="m 4389.29,964.98 c 0,0 -0.32,72.52 12.78,87.24 13.11,14.7 39.12,7.97 43.63,-18.62 4.18,-24.62 2.56,-136.858 0.5,-157.51 -0.18,-1.801 -1.66,-3.16 -3.46,-3.25 -11.18,-0.508 -50.33,-2.16 -53.55,-0.36 -3.76,2.102 0.1,92.5 0.1,92.5" /><path
         id="path176"
         style="fill:#ffffff;fill-opacity:1;fill-rule:nonzero;stroke:none"
         d="m 4255.36,880.859 c 0,0 -4.82,-8.839 10.12,-8.839 14.94,0 114.61,0 114.61,0 l -8.02,18.339 c 0,0 -103.06,-15.609 -116.71,-9.5" /><path
         id="path178"
         style="fill:#f5ac32;fill-opacity:1;fill-rule:nonzero;stroke:none"
         d="m 4080.73,1993.83 c 0,0 47.47,67.81 20.34,176.31 -27.12,108.49 -145.79,369.57 -193.26,430.6 -47.46,61.03 -149.18,111.89 -183.09,111.89 -33.91,0 -98.33,-6.79 -132.24,-16.96 -33.9,-10.17 -250.89,-206.82 -328.88,-342.45 -77.98,-135.61 -94.93,-111.88 -128.84,-91.54 -33.91,20.34 -111.9,47.47 -183.1,-13.56 -41.78,-35.83 21.57,-133.57 114.62,-198.6 86.6,-60.51 201.02,-63.53 291.97,-9.76 l 722.48,-45.93" /><path
         id="path180"
         style="fill:#f28e12;fill-opacity:1;fill-rule:nonzero;stroke:none"
         d="m 3358.25,2039.76 c 0,0 85.69,21.47 191.29,242.51 105.61,221.03 364.25,239.66 465.79,113.69 0,0 70.41,-168.53 79.41,-203.07 9,-34.55 30.9,-121.56 -14.01,-199.06 l -660.49,-70.67 -61.99,116.6" /><path
         id="path182"
         style="fill:#151c36;fill-opacity:1;fill-rule:nonzero;stroke:none"
         d="m 3946.38,1396.42 h -451.6 c -35.8,0 -64.83,29.02 -64.83,64.82 h 581.25 c 0,-35.8 -29.02,-64.82 -64.82,-64.82" /><path
         id="path184"
         style="fill:#151c36;fill-opacity:1;fill-rule:nonzero;stroke:none"
         d="m 3695.58,1626.38 v -603.33 l -414.15,-125.269 28.12,-25.562 401.37,94.59 373.24,-94.59 23.01,28.121 -370.68,122.71 v 603.33 h -40.91" /><path
         id="path186"
         style="fill:#151c36;fill-opacity:1;fill-rule:nonzero;stroke:none"
         d="m 3735.19,890.992 h -39.61 v 265.868 h 39.61 V 890.992" /><path
         id="path188"
         style="fill:#0d0a09;fill-opacity:1;fill-rule:nonzero;stroke:none"
         d="m 3362.32,858.91 c 0,-31.789 -25.76,-57.558 -57.55,-57.558 -31.79,0 -57.55,25.769 -57.55,57.558 0,31.77 25.76,57.551 57.55,57.551 31.79,0 57.55,-25.781 57.55,-57.551" /><path
         id="path190"
         style="fill:#0d0a09;fill-opacity:1;fill-rule:nonzero;stroke:none"
         d="m 3772.93,858.91 c 0,-31.789 -25.76,-57.558 -57.55,-57.558 -31.78,0 -57.54,25.769 -57.54,57.558 0,31.77 25.76,57.551 57.54,57.551 31.79,0 57.55,-25.781 57.55,-57.551" /><path
         id="path192"
         style="fill:#0d0a09;fill-opacity:1;fill-rule:nonzero;stroke:none"
         d="m 4149.01,858.91 c 0,-31.789 -25.77,-57.558 -57.55,-57.558 -31.79,0 -57.56,25.769 -57.56,57.558 0,31.77 25.77,57.551 57.56,57.551 31.78,0 57.55,-25.781 57.55,-57.551" /><path
         id="path194"
         style="fill:#ffffff;fill-opacity:1;fill-rule:nonzero;stroke:none"
         d="m 4115.02,2220.21 c -0.87,2.13 -1.74,4.28 -2.58,6.37 -13.8,33.94 -34.93,63.45 -60.98,86.95 -47.91,43.19 -112.56,66.02 -179.45,58.33 -96.73,-11.13 -197.23,-71.45 -253.8,-189.86 -61.76,-129.27 -143.25,-205.93 -200.29,-247.35 l -68.7,-41.09 c 0,0 -131.09,-59.29 -153.56,-189.64 -22.46,-130.37 166.87,-242.68 250.31,-242.68 83.43,0 489.71,0 564.8,0 24.5,0 323.25,374.09 104.25,758.97" /><path
         id="path196"
         style="fill:#27429f;fill-opacity:1;fill-rule:nonzero;stroke:none"
         d="m 2987.08,954.07 c 0,0 38.63,-43.449 38.63,-106.218 l -143.25,-13.473 c 0,0 -0.93,68.191 24.49,106.82 0,0 51.16,-30.578 80.13,12.871" /><path
         id="path198"
         style="fill:#ffffff;fill-opacity:1;fill-rule:nonzero;stroke:none"
         d="m 2718.96,819.012 h 295.07 c 6.44,0 11.68,5.238 11.68,11.679 v 17.161 l -306.75,-28.84" /><path
         id="path200"
         style="fill:#27429f;fill-opacity:1;fill-rule:nonzero;stroke:none"
         d="m 2718.96,819.012 c 0,0 15.85,35.437 103.92,61.867 88.08,26.422 77.48,48.531 77.48,48.531 l 38.78,-35.18 v -54.511 l -220.18,-20.707" /><path
         id="path202"
         style="fill:#ffffff;fill-opacity:1;fill-rule:nonzero;stroke:none"
         d="m 2962.73,877.699 c 0.51,4.891 -2.18,9.531 -6.53,11.813 -5.93,3.117 -15.84,7.117 -24.18,4.718 -12.91,-3.699 -18.89,-10.621 -14.75,-25.351 4.15,-14.75 23.42,-16.129 36.82,-5.527 6.13,4.847 8.2,10.097 8.64,14.347" /><path
         id="path204"
         style="fill:#151c36;fill-opacity:1;fill-rule:nonzero;stroke:none"
         d="m 3351.06,2911.69 c 0,0 21.84,-45.25 49.93,-34.33 28.09,10.93 34.33,31.21 54.61,34.33 20.28,3.12 20.28,-48.37 28.09,-60.85 7.8,-12.49 20.28,-6.25 26.52,0 6.24,6.24 -28.09,34.59 -26.52,60.99 1.56,26.38 65.53,2.98 54.6,-59.43 -10.91,-62.41 37.46,-82.7 62.42,-82.7 24.97,0 87.38,-7.8 99.86,48.37 12.48,56.17 -104.54,268.38 -137.3,301.14 -32.78,32.76 -140.43,28.08 -244.98,23.4 -104.54,-4.68 -159.15,-43.68 -159.15,-95.17 0,-51.49 84.26,-53.06 84.26,-53.06 0,0 -39,-51.48 -40.56,-78.01 -1.57,-26.53 67.09,-60.85 148.22,-4.68" /><path
         id="path206"
         style="fill:#151c36;fill-opacity:1;fill-rule:nonzero;stroke:none"
         d="m 3540.72,3148.56 c 1.07,-0.43 2.19,-0.71 3.27,-0.89 7.61,-1.23 16.1,2.3 17.51,7.29 1.49,5.33 -2.14,7.71 -3.76,8.49 -3.49,1.64 -8.4,1.26 -11.16,-2.63 -2.34,-3.32 -4.59,-7.65 -5.86,-12.26 z m 4.68,-31.89 c -0.95,0 -1.92,0.27 -2.77,0.84 -6.88,4.59 -11.08,10.72 -12.48,18.21 -0.53,2.84 -0.62,5.66 -0.39,8.36 -3.95,4.11 -5.98,9.9 -5.61,16.77 1.22,23.06 23.78,29.13 35.66,29.13 2.71,-0.07 5.12,-2.2 5.11,-5.01 0,-2.76 -2.24,-4.99 -5,-4.99 -1.01,0 -24.75,-0.26 -25.79,-19.66 l -0.02,-1.11 c 1.66,3.44 3.35,6.03 4.3,7.37 5.94,8.43 16.41,9.33 23.62,5.9 7.91,-3.76 11.48,-11.7 9.1,-20.21 -3.09,-10.98 -17.31,-16.37 -28.76,-14.47 l -2.52,0.54 0.13,-0.79 c 0.89,-4.81 3.58,-8.64 8.2,-11.72 2.29,-1.53 2.92,-4.64 1.38,-6.93 -0.96,-1.45 -2.54,-2.23 -4.16,-2.23" /><path
         id="path208"
         style="fill:#f9ae8f;fill-opacity:1;fill-rule:nonzero;stroke:none"
         d="m 1558.05,2941.8 -100.91,314.98 c 0,0 -76.52,165.6 -151.95,173.07 -75.43,7.47 -168.3,-44.8 -173.16,-181.64 -4.87,-136.84 104.34,-245.15 148.4,-272.59 44.06,-27.44 89.29,46.97 89.29,46.97 l 65.85,-294.02 122.48,213.23" /><path
         id="path210"
         style="fill:#27429f;fill-opacity:1;fill-rule:nonzero;stroke:none"
         d="m 1265.85,2950.93 c 2.12,-1.32 4.24,-2.42 6.36,-3.33 7.94,-3.38 17.03,-2.67 24.5,1.65 15.22,8.81 30.34,17.76 45.33,26.91 3.15,2.76 6.26,5.48 9.42,8.24 8.45,10.37 0,0 0,0 l 14.95,12.22 c 47.53,38.82 95.47,77.14 144.32,114.29 l -4.68,98.57 c -5.08,107.07 -73.38,202.6 -174.92,236.96 -13.07,4.42 -25.83,7.51 -37.79,8.69 -83.72,8.29 -186.82,-49.73 -192.22,-201.62 -5.4,-151.89 115.83,-272.13 164.73,-302.58" /><path
         id="path212"
         style="fill:#3f55ae;fill-opacity:1;fill-rule:nonzero;stroke:none"
         d="m 1507.78,2945.76 c 91.63,1.29 162.03,-81.74 149.09,-172.46 -7.98,-55.93 -39.58,-126.13 -121.04,-206.82 -212.8,-210.79 -835.432,-215.05 -911.443,311.76 0,0 46.543,31.13 119.172,49.6 72.625,18.46 192.929,-261.73 435.651,-179.75 192.15,64.9 214.88,196.08 328.57,197.67" /><path
         id="path214"
         style="fill:#f5ac32;fill-opacity:1;fill-rule:nonzero;stroke:none"
         d="m 1397.85,756.641 4.41,-76.301 -68.36,17.219 0.26,54.113 63.69,4.969" /><path
         id="path216"
         style="fill:#212b59;fill-opacity:1;fill-rule:nonzero;stroke:none"
         d="m 1632.63,1928.12 c 0,0 -336.98,-468.64 -350.52,-495.12 -13.54,-26.49 -26.31,-43.09 -9.93,-156.82 16.38,-113.73 56.09,-555.848 56.09,-555.848 l 73.9,21.77 46.36,570.908 c 27.2,28.46 442.99,417.77 439.19,423.25 -42.95,62.01 -255.09,191.86 -255.09,191.86" /><path
         id="path218"
         style="fill:#ffffff;fill-opacity:1;fill-rule:nonzero;stroke:none"
         d="m 1415.08,724 c 0,0 45.49,-50.559 45.93,-123.988 l -167.47,-16.75 c 0,0 -1.57,79.758 27.89,125.117 0,0 60.07,-35.41 93.65,15.621" /><path
         id="path220"
         style="fill:#ffffff;fill-opacity:1;fill-rule:nonzero;stroke:none"
         d="m 1102.38,564.141 345.17,2.058 c 7.54,0.039 13.63,6.199 13.58,13.742 l -0.12,20.071 -358.63,-35.871" /><path
         id="path222"
         style="fill:#ffffff;fill-opacity:1;fill-rule:nonzero;stroke:none"
         d="m 1102.38,564.141 c 0,0 18.3,41.558 121.14,73.089 102.85,31.52 90.3,57.309 90.3,57.309 l 45.61,-40.879 0.38,-63.769 -257.43,-25.75" /><path
         id="path224"
         style="fill:#f5ac32;fill-opacity:1;fill-rule:nonzero;stroke:none"
         d="m 2684.26,1392.59 44.08,-16.5 17.82,-40.28 -27.49,-23.2 -50.93,18.27 16.52,61.71" /><path
         id="path226"
         style="fill:#212b59;fill-opacity:1;fill-rule:nonzero;stroke:none"
         d="m 1548.84,1864.88 c 0,0 438.65,-334.6 459.12,-356.19 20.46,-21.58 31.86,-39.15 144.55,-61.58 112.7,-22.43 542.82,-132.23 542.82,-132.23 l 4.08,76.94 -522.89,233.83 c -17.79,35.13 -148.91,429.29 -150.32,437.43 -1.4,8.12 -477.36,-198.2 -477.36,-198.2" /><path
         id="path228"
         style="fill:#ffffff;fill-opacity:1;fill-rule:nonzero;stroke:none"
         d="m 2714.15,1391.76 c 0,0 59.79,32.41 131.28,15.68 l -22.84,-166.75 c 0,0 -77.91,17.11 -115.14,56.36 0,0 48.47,50.13 6.7,94.71" /><path
         id="path230"
         style="fill:#ffffff;fill-opacity:1;fill-rule:nonzero;stroke:none"
         d="m 2796.51,1050.35 78.66,336.11 c 1.72,7.34 -2.84,14.68 -10.2,16.4 l -19.54,4.58 -48.92,-357.09" /><path
         id="path232"
         style="fill:#ffffff;fill-opacity:1;fill-rule:nonzero;stroke:none"
         d="m 2796.51,1050.35 c 0,0 -36.14,27.51 -42.76,134.87 -6.62,107.37 -34.63,101.2 -34.63,101.2 l 50.41,34.78 62.1,-14.53 -35.12,-256.32" /><path
         id="path234"
         style="fill:#ffffff;fill-opacity:1;fill-rule:nonzero;stroke:none"
         d="m 1537.84,3004.86 c 0,0 155.99,-25.24 318.02,-242.53 162.03,-217.29 406.48,-934.05 299.09,-956.69 -107.39,-22.63 -355.98,57.17 -496.64,-22.29 -156.19,-88.23 -289.73,-115.73 -314.81,-56.34 -25.07,59.39 139.85,535.23 46.94,680.12 -92.91,144.9 -97.2,506.56 147.4,597.73" /><path
         id="path236"
         style="fill:#b9c1e7;fill-opacity:1;fill-rule:nonzero;stroke:none"
         d="m 1352.64,1834.3 c 0,0 130.93,9.97 293.08,101.51 161.77,91.33 448.84,75.96 530.26,0.6 0,0 -4.95,36.95 -12,71.48 -5.07,24.87 -11.61,45.75 -16.45,63.56 0,0 -283.16,71.85 -522.2,-57.58 -221.61,-119.98 -247.49,-54.19 -247.49,-54.19 l -25.2,-125.38" /><path
         id="path238"
         style="fill:#b9c1e7;fill-opacity:1;fill-rule:nonzero;stroke:none"
         d="m 2065.81,2328.12 c -5.84,16.33 -20.31,53.64 -20.55,54.31 -103.21,4.4 -244.15,-8.94 -372.89,-78.65 -221.6,-119.99 -254.06,-67.84 -254.06,-67.84 l -11.08,-110.95 c 0,0 123.38,9.18 285.53,100.72 105.6,59.62 269.96,72.82 390.29,54.5 l -17.24,47.91" /><path
         id="path240"
         style="fill:#b9c1e7;fill-opacity:1;fill-rule:nonzero;stroke:none"
         d="m 1911.69,2674.19 c -97.4,-9.44 -217.73,-38.86 -324.34,-109.78 -130.45,-86.78 -195.34,-101.29 -224.84,-99.39 1.4,-4.72 3.94,-8.81 5.16,-13.56 4.02,-9.54 9.63,-22.83 17.74,-36.09 5.03,-8.24 12.7,-22.22 18,-34.76 50.22,17.52 128.55,50.71 211.33,107.91 89.71,61.99 230.12,90.89 345.85,90.75 -15.77,31.73 -31.33,65.13 -48.9,94.92" /><path
         id="path242"
         style="fill:#b9c1e7;fill-opacity:1;fill-rule:nonzero;stroke:none"
         d="m 1673.63,2941.76 c -0.83,0.14 -145.18,-55.41 -205.31,-95.4 -55.29,-36.79 -85.29,-50.19 -119.33,-65.26 0,0 -6.85,-25 -10.34,-48.11 -1.87,-12.34 -5.75,-45.99 -5.98,-54.17 47.49,19.4 99.87,47.99 163.04,91.64 69.64,48.13 179.35,80.66 274.83,90.79 -20.7,24.5 -49.7,50.49 -71.27,62.15 -6.18,3.33 -18.72,17.21 -25.64,18.36" /><path
         id="path244"
         style="fill:#777b7d;fill-opacity:1;fill-rule:nonzero;stroke:none"
         d="m 512.039,2549.36 c -7.476,-17.26 -27.519,-25.19 -44.773,-17.71 -17.258,7.47 -25.188,27.52 -17.711,44.77 7.476,17.26 27.519,25.18 44.773,17.71 17.258,-7.47 25.184,-27.52 17.711,-44.77" /><path
         id="path246"
         style="fill:#f28e12;fill-opacity:1;fill-rule:nonzero;stroke:none"
         d="m 835.305,2890.64 c 42.558,98.25 -3.84,212.62 -103.602,253.11 -93.457,37.93 -201.676,-4.33 -244.644,-95.59 -15.02,-31.9 -20.454,-65.7 -17.567,-98.27 h -0.008 l 0.008,-0.02 c 0.703,-7.92 2.071,-15.71 3.738,-23.44 5.239,-39.07 11.485,-119.16 -14.066,-178.15 l 86.582,-37.5 2.832,-1.23 89.047,-38.57 c 24.918,57.52 85.133,106.69 117.867,130.35 34.297,19.79 62.867,50.18 79.813,89.31" /><path
         id="path248"
         style="fill:#d3d5d2;fill-opacity:1;fill-rule:nonzero;stroke:none"
         d="m 616.332,2633.79 -169.363,73.36 c -11.352,4.92 -16.614,18.23 -11.696,29.58 4.915,11.35 18.223,16.61 29.571,11.69 l 169.363,-73.36 c 11.352,-4.91 16.617,-18.22 11.699,-29.57 -4.918,-11.35 -18.222,-16.61 -29.574,-11.7" /><path
         id="path250"
         style="fill:#d3d5d2;fill-opacity:1;fill-rule:nonzero;stroke:none"
         d="m 598.461,2592.52 -169.371,73.37 c -11.348,4.91 -16.61,18.22 -11.695,29.57 4.918,11.35 18.222,16.61 29.574,11.69 l 169.367,-73.36 c 11.348,-4.91 16.613,-18.22 11.695,-29.57 -4.918,-11.34 -18.222,-16.61 -29.57,-11.7" /><path
         id="path252"
         style="fill:#d3d5d2;fill-opacity:1;fill-rule:nonzero;stroke:none"
         d="m 580.586,2551.26 -169.371,73.36 c -11.348,4.92 -16.613,18.22 -11.695,29.57 4.918,11.35 18.222,16.61 29.57,11.7 l 169.371,-73.37 c 11.348,-4.91 16.609,-18.22 11.695,-29.57 -4.918,-11.34 -18.222,-16.61 -29.57,-11.69" /><path
         id="path254"
         style="fill:#a7a9a8;fill-opacity:1;fill-rule:nonzero;stroke:none"
         d="m 515.32,2541.26 -72.64,31.47 c -8.864,3.84 -20.621,36.67 -16.782,45.53 0,0 7.247,-3.14 16.102,-6.98 l 103.195,-44.69 c 8.856,-3.84 16.11,-6.98 16.11,-6.98 -3.84,-8.86 -37.121,-22.18 -45.985,-18.35" /><path
         id="path256"
         style="fill:#151c36;fill-opacity:1;fill-rule:nonzero;stroke:none"
         d="m 619.215,2794.39 c 14.656,-4.08 25.816,-4.46 32.523,-0.88 5.707,3.05 8.106,6.84 7.129,11.26 -1.484,6.73 -9.969,13.05 -18.16,13.53 -8.418,0.43 -14.949,-4.92 -18.644,-15.62 -0.942,-2.73 -1.887,-5.5 -2.848,-8.29 z m -29.535,-86.32 -9.461,3.22 c 0,0 13.066,38.37 26.172,76.56 -13.539,4.74 -29.164,11.94 -46.817,21.6 -6.441,3.51 -14.047,4.02 -20.906,1.36 -6.922,-2.69 -12.277,-8.25 -14.695,-15.27 l -18.707,-54.42 c -0.903,-2.61 -3.739,-3.99 -6.352,-3.1 -2.609,0.89 -3.996,3.74 -3.101,6.35 l 18.707,54.42 c 3.375,9.81 10.859,17.59 20.539,21.34 9.609,3.72 20.293,3.03 29.308,-1.91 16.93,-9.26 32.207,-16.25 45.309,-20.82 0.988,2.87 1.965,5.72 2.933,8.53 7.313,21.23 22.454,22.68 28.672,22.35 12.649,-0.73 24.918,-10.31 27.352,-21.36 1.972,-8.94 -2.465,-17.04 -12.18,-22.23 -9.219,-4.93 -22.781,-4.88 -40.527,0.13 -13.129,-38.24 -26.246,-76.75 -26.246,-76.75" /><path
         id="path258"
         style="fill:#b9c1e7;fill-opacity:1;fill-rule:nonzero;stroke:none"
         d="m 1538.37,2802.05 c 91.63,1.28 162.03,-81.75 149.08,-172.47 -7.97,-55.93 -39.58,-126.13 -121.03,-206.82 -115.1,-114.01 -350.09,-167.6 -553.63,-109.42 -164.263,46.94 -308.044,166.68 -351.813,386.19 -4.27,21.39 6.355,43.1 25.957,52.67 20.726,10.13 50.668,22.63 87.211,31.92 72.625,18.46 192.933,-261.73 435.645,-179.75 192.16,64.9 214.89,196.08 328.58,197.68" /><path
         id="path260"
         style="fill:#27429f;fill-opacity:1;fill-rule:nonzero;stroke:none"
         d="m 678.813,2739.54 c 0,0 -84.938,88.61 -102.575,130.95 -10.683,25.64 -38.082,68.56 3.864,102.86 41.945,34.31 125.57,-93.03 125.57,-93.03 0,0 -15.082,31.8 0.254,46.57 15.336,14.78 29.316,-29.39 33.14,-70.64 2.829,-30.44 22.848,-81.63 22.848,-81.63 l -83.101,-35.08" /><path
         id="path262"
         style="fill:#3f55ae;fill-opacity:1;fill-rule:nonzero;stroke:none"
         d="m 1021.2,2350.15 c 17.59,8.44 86.4,9.33 120.2,-7.78 33.8,-17.11 21.82,-52.74 21.82,-52.74 0,0 -94.07,4.32 -150.43,23.71 0,0 -16.407,24.9 8.41,36.81" /><path
         id="path264"
         style="fill:#f9ae8f;fill-opacity:1;fill-rule:nonzero;stroke:none"
         d="m 1107.37,3183.63 c 0,0 23.76,33.36 57.8,44.86 34.04,11.51 40.34,-30.49 33.12,-44.04 -7.21,-13.55 -65.99,-56.24 -73.6,-56.58 0,0 -10.62,20.97 -17.32,55.76" /><path
         id="path266"
         style="fill:#151c36;fill-opacity:1;fill-rule:nonzero;stroke:none"
         d="m 1148.45,3158.17 c -5.37,-3.17 -13.04,-0.12 -17.14,6.81 -4.09,6.92 -3.05,15.11 2.31,18.28 5.37,3.18 13.04,0.13 17.14,-6.8 4.09,-6.92 3.06,-15.11 -2.31,-18.29" /><path
         id="path268"
         style="fill:#27429f;fill-opacity:1;fill-rule:nonzero;stroke:none"
         d="m 1516.57,3132.53 10.83,-41.09 c 2.12,-5.23 0.51,-11.23 -3.93,-14.68 l -214.44,-163.59 c -4.71,-3.65 -11.33,-3.43 -15.79,0.52 l -24.7,21.87 c -5.74,5.08 -5.62,14.13 0.26,19.05 l 228.29,182.82 c 6.47,5.43 16.31,2.95 19.48,-4.9" /><path
         id="path270"
         style="fill:#151c36;fill-opacity:1;fill-rule:nonzero;stroke:none"
         d="m 1112.86,3157.11 -2.31,0.57 c -2.45,1.28 -3.4,4.29 -2.12,6.74 l 28.17,54 c 1.28,2.45 4.28,3.41 6.75,2.12 2.44,-1.28 3.39,-4.29 2.12,-6.75 l -28.18,-54 c -0.89,-1.7 -2.63,-2.68 -4.43,-2.68" /><path
         id="path272"
         style="fill:#151c36;fill-opacity:1;fill-rule:nonzero;stroke:none"
         d="m 1432.95,3007.71 c 0,0 21.25,-37.76 60.56,-12.47 0,0 31.1,-26.38 77.59,-12.71 46.49,13.68 34.31,44.93 34.31,44.93 0,0 54.85,-1.12 66.22,33.41 11.38,34.53 -28.35,73.54 -59.36,60.7 0,0 -60.77,29.65 -84.87,-30.13 l -94.45,-83.73" /><path
         id="path274"
         style="fill:#ffffff;fill-opacity:1;fill-rule:nonzero;stroke:none"
         d="M 3381.2,4102.4 H 1645.76 c -28.39,0 -51.4,23.01 -51.4,51.39 v 35.34 H 3432.6 v -35.34 c 0,-28.38 -23.02,-51.39 -51.4,-51.39" /><path
         id="path276"
         style="fill:#151c36;fill-opacity:1;fill-rule:nonzero;stroke:none"
         d="m 1687.53,4227.48 c -2.77,0 -5,2.24 -5,5 V 5000 c 0,2.77 2.23,5 5,5 2.76,0 5,-2.23 5,-5 v -767.52 c 0,-2.76 -2.24,-5 -5,-5" /><path
         id="path278"
         style="fill:#151c36;fill-opacity:1;fill-rule:nonzero;stroke:none"
         d="m 3361.19,4227.48 c -2.77,0 -5,2.24 -5,5 V 5000 c 0,2.77 2.23,5 5,5 2.76,0 5,-2.23 5,-5 v -767.52 c 0,-2.76 -2.24,-5 -5,-5" /><path
         id="path280"
         style="fill:#151c36;fill-opacity:1;fill-rule:nonzero;stroke:none"
         d="M 3490.44,4145.76 H 1523.88 l 21.43,86.72 h 1926.34 l 18.79,-86.72" /><path
         id="path282"
         style="fill:#ffffff;fill-opacity:1;fill-rule:nonzero;stroke:none"
         d="m 3409.32,3273.84 c 2.36,0 4.46,-1.69 4.91,-4.1 2.82,-15.4 17.71,-25.72 33.06,-23.08 15.4,2.67 25.88,17.4 23.36,32.84 -0.45,2.71 1.38,5.27 4.08,5.73 l 7.08,1.23 c 5.76,1 19.86,20.06 23.29,30 -1.44,0.66 -2.56,2 -2.84,3.69 -0.48,2.72 1.35,5.31 4.07,5.78 l 24.03,4.16 c 4.51,0.78 8.45,3.29 11.12,7.07 2.66,3.77 3.7,8.34 2.92,12.84 -0.78,4.52 -3.29,8.47 -7.07,11.13 -3.78,2.67 -8.35,3.7 -12.85,2.92 -2.7,-0.47 -5.31,1.35 -5.78,4.07 -0.47,2.72 1.35,5.31 4.08,5.78 9.35,1.62 15.65,10.56 14.03,19.92 -1.61,9.37 -10.54,15.64 -19.92,14.04 -2.69,-0.47 -5.3,1.35 -5.78,4.07 l -0.07,0.86 c 0,2.39 1.71,4.5 4.15,4.92 4.51,0.79 8.46,3.3 11.12,7.07 2.67,3.77 3.7,8.34 2.92,12.85 -1.37,7.89 -8.18,13.87 -16.22,14.24 -2.36,0.11 -4.32,1.87 -4.7,4.2 -9.98,61.66 12.85,134.51 27.34,172.45 18.16,36.06 24.08,75.48 17.33,114.47 -8.51,49.22 -35.88,91.91 -77.04,120.21 -41.14,28.29 -90.82,38.58 -139.9,28.88 -95.78,-18.87 -160.14,-109.37 -146.51,-206.01 4.57,-32.37 17.6,-62.94 37.71,-88.38 4.22,-5.36 9.11,-10.73 15.38,-16.92 27.35,-31.57 74.49,-93.38 85.99,-155.93 0.42,-2.29 -0.8,-4.57 -2.94,-5.49 -7.37,-3.19 -11.56,-10.88 -10.21,-18.72 0.78,-4.52 3.29,-8.47 7.07,-11.13 3.77,-2.66 8.34,-3.69 12.85,-2.91 2.68,0.49 5.3,-1.36 5.79,-4.08 l 0.06,-0.85 c 0,-2.39 -1.7,-4.51 -4.15,-4.93 -9.35,-1.62 -15.65,-10.55 -14.03,-19.92 1.61,-9.35 10.54,-15.65 19.92,-14.03 2.68,0.44 5.31,-1.35 5.78,-4.07 l 0.07,-0.86 c 0,-2.39 -1.71,-4.51 -4.15,-4.93 -4.51,-0.78 -8.46,-3.29 -11.12,-7.06 -2.67,-3.78 -3.7,-8.34 -2.92,-12.85 0.78,-4.52 3.29,-8.47 7.07,-11.13 3.78,-2.66 8.35,-3.69 12.85,-2.92 l 15.59,2.71 c 2.67,0.46 5.3,-1.35 5.77,-4.08 0.38,-2.14 5.1,-8.29 14.42,-15.26 9.21,-6.89 16.28,-9.53 18.35,-9.22 l 3.78,0.65 z m 33.12,-37.6 c -16.67,0 -31.73,10.91 -36.85,26.91 -8.24,-0.79 -20.31,7.49 -25.23,11.17 -4.09,3.04 -12.64,9.93 -16.49,16.8 l -11.62,-2.01 c -7.1,-1.24 -14.35,0.4 -20.31,4.6 -5.97,4.2 -9.92,10.45 -11.16,17.59 -1.24,7.14 0.4,14.36 4.59,20.32 0.9,1.28 1.9,2.46 2.97,3.55 -7.7,3.67 -13.58,10.9 -15.14,19.94 -1.57,9.04 1.54,17.82 7.57,23.87 -1.39,0.67 -2.73,1.45 -4,2.35 -5.97,4.2 -9.92,10.45 -11.16,17.6 -1.91,11.04 3.12,21.9 12.46,27.7 -12.18,59 -56.85,117.41 -82.73,147.31 -6.24,6.13 -11.36,11.74 -15.81,17.36 l -0.15,0.18 c -21.19,26.85 -34.94,59.07 -39.75,93.19 -14.37,101.91 53.48,197.33 154.48,217.23 51.72,10.17 104.11,-0.63 147.5,-30.45 43.4,-29.85 72.25,-74.86 81.23,-126.75 7.11,-41.13 0.87,-82.7 -18.06,-120.22 -13.64,-35.78 -35.29,-104.55 -27.15,-163.13 10.81,-2.21 19.53,-10.93 21.45,-22.01 1.24,-7.14 -0.39,-14.36 -4.59,-20.32 -0.9,-1.28 -1.9,-2.46 -2.97,-3.55 7.7,-3.68 13.58,-10.9 15.14,-19.94 1.57,-9.04 -1.54,-17.82 -7.56,-23.88 1.38,-0.66 2.71,-1.44 3.99,-2.34 5.97,-4.21 9.92,-10.46 11.16,-17.6 1.23,-7.14 -0.4,-14.36 -4.6,-20.31 -4.2,-5.96 -10.45,-9.93 -17.6,-11.16 l -16.54,-2.87 c -1.45,-7.8 -7.58,-17.29 -10.57,-21.57 -3.72,-5.3 -13.22,-17.77 -21.43,-19.19 l -2.51,-0.44 c 0.62,-18.95 -12.88,-36.05 -32.01,-39.36 -2.2,-0.38 -4.39,-0.57 -6.55,-0.57" /><path
         id="path284"
         style="fill:#151c36;fill-opacity:1;fill-rule:nonzero;stroke:none"
         d="m 3738.4,3425.42 c 0,0 -45.07,-183.72 -53.21,-207.87 -8.14,-24.15 30.46,-53.79 39.66,-41 9.19,12.79 121.05,256.75 105.82,277.23 -15.23,20.48 -83.03,9.08 -92.27,-28.36" /><path
         id="path286"
         style="fill:#151c36;fill-opacity:1;fill-rule:nonzero;stroke:none"
         d="m 3697.74,3164.01 c 0,0 -37.8,19.64 -35.52,-24.36 1.4,-26.81 9.97,-40.44 35.52,-20.34 25.54,20.1 0,44.7 0,44.7" /></g></g></svg>