<?xml version="1.0"?>
<svg xmlns="http://www.w3.org/2000/svg" xmlns:xlink="http://www.w3.org/1999/xlink" id="svg" version="1.1" width="400" height="61.8" viewBox="0, 0, 400,61.8">
  <g id="svgg">
    <path id="path0" d="M52.333 7.667 C 52.209 8.125,52.051 8.500,51.984 8.500 C 51.916 8.500,51.693 9.044,51.489 9.708 C 51.284 10.373,51.023 11.067,50.910 11.250 C 50.797 11.433,50.572 11.996,50.411 12.500 C 50.250 13.004,50.065 13.454,50.000 13.500 C 49.935 13.546,49.749 13.996,49.587 14.500 C 49.424 15.004,49.125 15.792,48.922 16.250 C 48.719 16.708,48.449 17.440,48.323 17.875 C 48.197 18.310,48.042 18.667,47.979 18.667 C 47.916 18.667,47.734 19.098,47.575 19.625 C 47.416 20.152,47.188 20.744,47.068 20.940 C 46.948 21.136,46.685 21.811,46.483 22.440 C 46.281 23.069,46.070 23.621,46.013 23.667 C 45.957 23.712,45.730 24.275,45.510 24.917 C 45.289 25.558,45.018 26.233,44.907 26.417 C 44.795 26.600,44.574 27.162,44.413 27.667 C 44.253 28.171,44.058 28.665,43.979 28.765 C 43.901 28.865,43.692 29.390,43.515 29.932 C 43.338 30.474,43.048 31.217,42.870 31.583 C 42.693 31.950,42.446 32.606,42.321 33.042 C 42.196 33.477,42.048 33.833,41.993 33.833 C 41.937 33.833,41.713 34.415,41.493 35.125 C 41.274 35.835,41.037 36.457,40.968 36.507 C 40.898 36.557,40.688 37.079,40.500 37.667 C 40.312 38.254,40.103 38.776,40.034 38.826 C 39.966 38.876,39.730 39.442,39.510 40.083 C 39.289 40.725,39.018 41.400,38.908 41.583 C 38.797 41.767,38.571 42.367,38.405 42.917 C 38.240 43.467,38.045 43.957,37.973 44.007 C 37.901 44.057,37.689 44.575,37.503 45.159 C 37.316 45.742,37.099 46.301,37.021 46.401 C 36.942 46.501,36.707 47.108,36.497 47.750 C 36.288 48.392,36.069 48.954,36.011 49.000 C 35.953 49.046,35.723 49.646,35.500 50.333 C 35.277 51.021,35.038 51.624,34.968 51.674 C 34.898 51.724,34.695 52.222,34.517 52.781 C 34.338 53.340,34.100 53.945,33.986 54.126 C 33.485 54.930,33.766 55.012,36.871 54.962 C 39.714 54.917,39.751 54.912,39.803 54.542 C 39.833 54.335,39.919 54.167,39.996 54.167 C 40.073 54.167,40.266 53.735,40.425 53.208 C 40.584 52.681,40.805 52.100,40.915 51.917 C 41.025 51.733,41.288 51.058,41.499 50.417 C 41.710 49.775,41.935 49.212,41.999 49.167 C 42.063 49.121,42.250 48.633,42.415 48.083 C 42.580 47.533,42.811 46.926,42.928 46.733 C 43.046 46.540,43.305 45.846,43.504 45.191 C 43.703 44.536,43.917 44.000,43.980 44.000 C 44.042 44.000,44.272 43.400,44.490 42.667 C 44.708 41.933,44.940 41.333,45.005 41.333 C 45.070 41.333,45.218 40.996,45.333 40.583 L 45.543 39.833 54.995 39.833 L 64.447 39.833 64.659 40.542 C 64.775 40.931,64.921 41.287,64.983 41.333 C 65.044 41.379,65.277 41.979,65.500 42.667 C 65.723 43.354,65.962 43.957,66.032 44.007 C 66.102 44.057,66.311 44.575,66.497 45.159 C 66.684 45.742,66.901 46.301,66.979 46.401 C 67.058 46.501,67.293 47.108,67.503 47.750 C 67.712 48.392,67.931 48.954,67.990 49.000 C 68.049 49.046,68.202 49.421,68.330 49.833 C 68.458 50.246,68.726 50.958,68.925 51.417 C 69.124 51.875,69.428 52.663,69.601 53.167 C 69.774 53.671,70.010 54.182,70.125 54.304 C 70.239 54.425,70.333 54.631,70.333 54.762 C 70.333 54.959,70.844 55.000,73.333 55.000 L 76.333 55.000 76.333 54.512 C 76.333 54.243,76.238 53.925,76.121 53.804 C 76.004 53.682,75.726 53.021,75.502 52.333 C 75.278 51.646,75.038 51.043,74.970 50.994 C 74.901 50.944,74.684 50.382,74.488 49.744 C 74.292 49.105,74.065 48.501,73.984 48.401 C 73.903 48.301,73.684 47.742,73.497 47.159 C 73.311 46.575,73.099 46.057,73.027 46.007 C 72.955 45.957,72.760 45.467,72.595 44.917 C 72.429 44.367,72.202 43.767,72.089 43.583 C 71.977 43.400,71.712 42.725,71.501 42.083 C 71.290 41.442,71.065 40.879,71.000 40.833 C 70.936 40.787,70.715 40.225,70.510 39.583 C 70.305 38.942,70.069 38.335,69.986 38.235 C 69.904 38.135,69.684 37.575,69.497 36.992 C 69.311 36.409,69.102 35.891,69.032 35.841 C 68.963 35.791,68.726 35.169,68.507 34.458 C 68.287 33.748,68.059 33.167,68.000 33.167 C 67.941 33.167,67.716 32.604,67.500 31.917 C 67.284 31.229,67.056 30.667,66.992 30.667 C 66.929 30.667,66.780 30.310,66.663 29.875 C 66.545 29.440,66.305 28.783,66.128 28.417 C 65.952 28.050,65.661 27.303,65.483 26.757 C 65.305 26.211,65.103 25.724,65.035 25.674 C 64.967 25.624,64.734 25.021,64.518 24.333 C 64.301 23.646,64.070 23.046,64.003 23.000 C 63.937 22.954,63.711 22.392,63.500 21.750 C 63.289 21.108,63.069 20.546,63.011 20.500 C 62.953 20.454,62.723 19.854,62.500 19.167 C 62.277 18.479,62.038 17.876,61.968 17.826 C 61.898 17.776,61.689 17.258,61.503 16.675 C 61.316 16.091,61.099 15.532,61.021 15.432 C 60.942 15.332,60.707 14.725,60.497 14.083 C 60.288 13.442,60.064 12.879,60.000 12.833 C 59.936 12.787,59.711 12.225,59.500 11.583 C 59.289 10.942,59.069 10.379,59.011 10.333 C 58.953 10.287,58.722 9.688,58.498 9.000 C 58.274 8.313,57.996 7.651,57.879 7.530 C 57.762 7.409,57.667 7.202,57.667 7.071 C 57.667 6.875,57.215 6.833,55.113 6.833 L 52.560 6.833 52.333 7.667 M125.228 11.125 C 125.166 11.377,125.066 11.621,125.006 11.667 C 124.946 11.713,124.725 12.463,124.515 13.333 C 124.305 14.204,124.073 14.992,123.999 15.083 C 123.925 15.175,123.693 15.943,123.483 16.790 C 123.111 18.292,123.087 18.334,122.509 18.517 C 122.183 18.620,121.504 18.910,121.000 19.160 C 120.496 19.411,119.785 19.714,119.421 19.833 C 119.057 19.953,118.658 20.151,118.534 20.275 C 118.411 20.399,118.202 20.500,118.071 20.500 C 117.883 20.500,117.833 20.811,117.833 22.000 L 117.833 23.500 120.493 23.500 L 123.153 23.500 123.210 35.792 C 123.269 48.400,123.337 49.679,123.974 50.167 C 124.034 50.212,124.250 50.604,124.454 51.037 C 124.832 51.840,125.034 52.119,125.811 52.910 C 126.657 53.771,126.923 53.959,127.708 54.251 C 128.144 54.413,128.500 54.595,128.500 54.655 C 128.500 55.598,136.965 55.646,138.958 54.715 L 139.500 54.462 139.500 52.324 C 139.500 51.148,139.435 50.146,139.356 50.097 C 139.183 49.990,137.370 50.309,136.961 50.519 C 136.555 50.726,132.833 50.709,132.833 50.500 C 132.833 50.408,132.701 50.333,132.539 50.333 C 131.320 50.333,129.548 48.427,129.245 46.790 C 129.181 46.445,129.062 46.122,128.981 46.072 C 128.898 46.020,128.833 41.096,128.833 34.740 L 128.833 23.500 134.000 23.500 L 139.167 23.500 139.167 21.167 L 139.167 18.833 134.000 18.833 L 128.833 18.833 128.833 14.750 L 128.833 10.667 127.087 10.667 L 125.340 10.667 125.228 11.125 M55.572 15.581 C 55.729 16.221,55.913 16.783,55.981 16.831 C 56.049 16.878,56.283 17.554,56.500 18.333 C 56.717 19.112,56.946 19.787,57.008 19.833 C 57.070 19.879,57.296 20.479,57.509 21.167 C 57.722 21.854,57.949 22.454,58.013 22.500 C 58.077 22.546,58.290 23.105,58.487 23.744 C 58.683 24.382,58.900 24.944,58.969 24.994 C 59.038 25.043,59.278 25.683,59.502 26.417 C 59.726 27.150,59.996 27.840,60.101 27.950 C 60.207 28.060,60.345 28.425,60.408 28.761 C 60.471 29.098,60.698 29.757,60.912 30.228 C 61.127 30.698,61.427 31.515,61.580 32.042 C 61.732 32.569,61.917 33.000,61.991 33.000 C 62.065 33.000,62.167 33.206,62.217 33.458 C 62.268 33.710,62.361 34.048,62.423 34.208 C 62.529 34.483,62.113 34.500,55.090 34.500 L 47.644 34.500 47.761 34.125 C 47.826 33.919,47.934 33.712,48.001 33.667 C 48.069 33.621,48.301 33.021,48.518 32.333 C 48.734 31.646,48.967 31.043,49.034 30.994 C 49.101 30.944,49.317 30.382,49.513 29.744 C 49.710 29.105,49.923 28.546,49.987 28.500 C 50.051 28.454,50.278 27.854,50.491 27.167 C 50.704 26.479,50.929 25.879,50.991 25.833 C 51.053 25.787,51.278 25.188,51.491 24.500 C 51.704 23.813,51.933 23.212,51.998 23.167 C 52.064 23.121,52.285 22.540,52.489 21.877 C 52.693 21.213,52.918 20.634,52.989 20.590 C 53.059 20.547,53.292 19.890,53.506 19.130 C 53.720 18.371,53.946 17.712,54.009 17.667 C 54.073 17.621,54.287 16.908,54.485 16.083 C 55.059 13.695,55.106 13.673,55.572 15.581 M158.000 18.438 C 156.856 18.582,154.749 19.039,154.667 19.161 C 154.621 19.228,154.077 19.451,153.458 19.656 C 152.840 19.860,152.333 20.077,152.333 20.139 C 152.333 20.200,151.980 20.438,151.548 20.667 C 150.691 21.121,150.490 21.282,149.250 22.505 C 148.069 23.670,147.824 23.964,147.167 25.007 C 146.117 26.672,145.167 28.899,145.167 29.693 C 145.167 29.862,145.103 30.000,145.024 30.000 C 144.805 30.000,144.492 32.168,144.337 34.749 C 144.140 38.057,144.560 43.333,145.022 43.333 C 145.101 43.333,145.166 43.465,145.166 43.625 C 145.165 44.059,145.864 46.333,145.998 46.333 C 146.061 46.333,146.212 46.631,146.332 46.996 C 146.452 47.360,146.689 47.807,146.859 47.989 C 147.028 48.171,147.167 48.365,147.167 48.421 C 147.167 49.067,151.213 53.167,151.851 53.167 C 151.920 53.167,152.078 53.269,152.203 53.393 C 152.494 53.685,153.804 54.264,154.524 54.421 C 154.832 54.487,155.126 54.608,155.178 54.690 C 155.753 55.590,166.159 55.562,166.472 54.660 C 166.503 54.572,166.640 54.500,166.777 54.500 C 167.194 54.500,169.212 53.637,169.565 53.308 C 169.747 53.139,169.987 53.000,170.098 53.000 C 170.547 53.000,173.833 49.844,173.833 49.413 C 173.833 49.278,173.907 49.167,173.997 49.167 C 174.086 49.167,174.321 48.848,174.519 48.458 C 174.717 48.069,174.928 47.712,174.989 47.667 C 175.141 47.552,175.833 45.838,175.833 45.575 C 175.833 45.457,175.907 45.336,175.996 45.306 C 176.086 45.275,176.319 44.500,176.515 43.583 C 176.710 42.667,176.955 41.737,177.060 41.516 C 177.187 41.250,177.250 39.716,177.250 36.917 C 177.250 34.117,177.187 32.584,177.060 32.317 C 176.955 32.097,176.710 31.167,176.515 30.250 C 176.319 29.333,176.086 28.558,175.996 28.528 C 175.907 28.497,175.833 28.344,175.833 28.187 C 175.833 27.798,174.377 24.988,173.984 24.619 C 173.809 24.455,173.667 24.255,173.667 24.176 C 173.667 23.795,170.681 21.052,169.728 20.558 C 169.469 20.424,169.218 20.253,169.170 20.179 C 169.123 20.105,168.596 19.872,168.000 19.661 C 167.404 19.450,166.823 19.205,166.708 19.118 C 166.064 18.626,160.158 18.165,158.000 18.438 M81.384 32.292 C 81.454 45.482,81.541 47.642,82.008 47.806 C 82.095 47.836,82.167 47.986,82.167 48.139 C 82.167 48.473,82.814 50.214,82.982 50.333 C 83.047 50.379,83.265 50.686,83.465 51.016 C 84.370 52.507,87.119 54.500,88.271 54.500 C 88.397 54.500,88.500 54.563,88.500 54.640 C 88.500 55.604,99.473 55.624,99.806 54.661 C 99.836 54.572,99.965 54.500,100.091 54.500 C 100.509 54.500,102.119 53.830,102.505 53.496 C 102.714 53.315,102.948 53.167,103.027 53.167 C 103.245 53.167,105.667 50.744,105.667 50.525 C 105.667 50.420,105.762 50.333,105.878 50.333 C 106.023 50.333,106.181 51.024,106.384 52.535 C 106.734 55.159,106.540 54.994,109.292 54.997 L 111.500 55.000 111.500 36.913 L 111.500 18.825 108.625 18.871 L 105.750 18.917 105.660 30.417 C 105.573 41.572,105.473 43.676,105.017 44.000 C 104.953 44.046,104.805 44.421,104.689 44.833 C 104.230 46.457,102.711 48.429,101.415 49.083 C 101.052 49.267,100.661 49.504,100.546 49.611 C 100.312 49.829,98.249 50.333,97.592 50.333 C 97.358 50.333,97.167 50.408,97.167 50.500 C 97.167 50.601,96.448 50.667,95.343 50.667 C 94.307 50.667,93.475 50.595,93.417 50.500 C 93.360 50.408,93.137 50.333,92.922 50.333 C 92.303 50.333,90.588 49.749,90.182 49.400 C 88.660 48.091,87.848 46.840,87.478 45.232 C 87.351 44.681,87.266 40.265,87.216 31.625 L 87.141 18.833 84.228 18.833 L 81.314 18.833 81.384 32.292 M162.500 23.333 C 162.500 23.425,162.711 23.500,162.970 23.500 C 163.707 23.500,165.174 23.985,166.044 24.516 C 166.481 24.782,166.878 25.000,166.925 25.000 C 167.020 25.000,168.176 26.177,168.812 26.920 C 169.029 27.174,169.359 27.728,169.544 28.150 C 169.729 28.571,169.947 28.960,170.027 29.012 C 170.108 29.064,170.330 29.777,170.521 30.595 C 170.712 31.414,170.955 32.263,171.060 32.483 C 171.323 33.036,171.322 40.631,171.059 41.183 C 170.954 41.403,170.702 42.296,170.499 43.167 C 170.297 44.038,170.078 44.788,170.012 44.833 C 169.947 44.879,169.722 45.275,169.513 45.714 C 169.303 46.152,168.971 46.700,168.774 46.932 C 167.830 48.043,167.023 48.780,166.416 49.083 C 166.050 49.267,165.709 49.471,165.660 49.537 C 165.507 49.741,164.194 50.152,163.326 50.267 C 162.872 50.327,162.500 50.442,162.500 50.521 C 162.500 50.601,161.712 50.667,160.750 50.667 C 159.694 50.667,159.000 50.601,159.000 50.500 C 159.000 50.408,158.783 50.333,158.518 50.333 C 157.800 50.333,155.841 49.687,155.447 49.320 C 155.258 49.144,155.031 49.000,154.942 49.000 C 154.660 49.000,152.574 46.748,152.346 46.197 C 152.225 45.905,152.072 45.667,152.006 45.667 C 151.940 45.667,151.705 45.123,151.484 44.458 C 151.264 43.794,151.037 43.212,150.980 43.167 C 150.003 42.383,150.098 32.115,151.099 30.195 C 151.227 29.950,151.332 29.659,151.332 29.547 C 151.334 29.271,151.869 28.134,152.125 27.863 C 152.240 27.742,152.333 27.539,152.333 27.412 C 152.333 27.097,154.746 24.667,155.059 24.667 C 155.197 24.667,155.415 24.561,155.543 24.433 C 155.839 24.137,157.163 23.684,158.109 23.554 C 158.507 23.499,158.833 23.390,158.833 23.311 C 158.833 23.231,159.658 23.167,160.667 23.167 C 161.778 23.167,162.500 23.232,162.500 23.333 " stroke="none" fill="#fcfcfc" fill-rule="evenodd"/>
    <path id="path1" d="M248.947 6.942 C 248.888 7.001,248.411 7.194,247.888 7.371 C 246.976 7.679,246.570 7.952,245.748 8.811 C 244.128 10.503,244.257 9.192,244.199 24.583 C 244.146 38.859,244.199 39.998,244.939 40.282 C 245.064 40.330,245.167 40.475,245.167 40.604 C 245.167 40.896,246.646 42.333,246.946 42.333 C 247.068 42.333,247.167 42.405,247.167 42.494 C 247.167 42.955,248.948 43.219,252.542 43.292 L 256.167 43.366 256.167 46.525 C 256.167 49.797,256.426 51.735,256.930 52.240 C 257.060 52.370,257.167 52.544,257.167 52.627 C 257.167 52.868,258.676 54.333,258.925 54.333 C 259.049 54.333,259.210 54.438,259.283 54.566 C 259.880 55.607,288.355 55.788,289.386 54.757 C 289.503 54.640,289.823 54.428,290.095 54.287 C 290.719 53.965,291.360 53.328,291.674 52.720 C 291.807 52.462,292.004 52.157,292.111 52.044 C 292.611 51.513,292.667 50.007,292.667 36.998 C 292.667 22.620,292.693 23.028,291.696 21.673 C 290.749 20.384,289.307 19.347,288.448 19.337 C 288.283 19.335,288.187 19.268,288.236 19.189 C 288.386 18.947,286.941 18.833,283.727 18.833 L 280.667 18.833 280.661 15.792 C 280.655 12.815,280.402 10.587,280.045 10.357 C 279.953 10.298,279.826 10.082,279.762 9.877 C 279.486 8.994,277.932 7.739,276.583 7.310 C 276.217 7.194,275.845 7.039,275.758 6.966 C 275.570 6.808,249.105 6.784,248.947 6.942 M312.766 6.975 C 312.717 7.053,312.085 7.162,311.360 7.218 C 310.005 7.323,307.712 7.776,307.417 7.997 C 307.325 8.066,306.800 8.288,306.250 8.491 C 305.700 8.693,305.137 8.957,305.000 9.077 C 304.862 9.196,304.441 9.450,304.062 9.640 C 303.684 9.830,303.330 10.101,303.276 10.243 C 303.222 10.384,303.076 10.500,302.953 10.500 C 302.830 10.500,302.418 10.856,302.036 11.292 C 301.655 11.727,301.205 12.233,301.036 12.417 C 300.346 13.169,299.175 15.641,299.169 16.361 C 299.168 16.514,299.098 16.664,299.013 16.694 C 298.421 16.909,298.388 23.647,298.975 24.397 C 299.055 24.500,299.256 25.022,299.422 25.558 C 299.587 26.093,299.806 26.618,299.909 26.724 C 300.012 26.830,300.258 27.231,300.457 27.614 C 301.202 29.058,303.825 31.720,304.875 32.100 C 305.035 32.158,305.167 32.276,305.167 32.361 C 305.167 32.447,305.422 32.624,305.733 32.754 C 306.045 32.884,306.403 33.086,306.529 33.204 C 306.862 33.514,309.671 34.934,310.208 35.063 C 310.460 35.123,310.667 35.247,310.667 35.337 C 310.667 35.426,310.748 35.500,310.846 35.500 C 311.042 35.500,314.223 37.041,314.550 37.294 C 314.660 37.380,315.087 37.629,315.500 37.850 C 315.912 38.070,316.348 38.381,316.468 38.542 C 316.588 38.702,316.774 38.833,316.881 38.833 C 317.266 38.833,318.459 40.318,318.682 41.075 C 318.805 41.492,318.965 41.833,319.036 41.833 C 319.108 41.833,319.167 42.208,319.167 42.667 C 319.167 43.125,319.101 43.500,319.021 43.500 C 318.941 43.500,318.828 43.744,318.770 44.042 C 318.605 44.894,318.174 45.572,317.520 46.010 C 317.188 46.232,316.875 46.470,316.825 46.538 C 316.124 47.487,307.171 47.463,306.333 46.509 C 306.287 46.457,305.688 46.277,305.000 46.108 C 304.313 45.940,303.487 45.671,303.167 45.511 C 302.846 45.351,302.133 45.081,301.583 44.912 C 301.033 44.743,300.542 44.544,300.492 44.471 C 300.371 44.296,298.533 43.667,298.141 43.667 C 297.849 43.667,297.833 43.912,297.833 48.417 C 297.833 51.229,297.896 53.167,297.988 53.167 C 298.073 53.167,298.249 53.273,298.379 53.403 C 298.633 53.657,300.934 54.500,301.374 54.500 C 301.520 54.500,301.664 54.569,301.694 54.654 C 301.725 54.739,302.575 54.970,303.583 55.169 C 304.592 55.368,305.541 55.595,305.692 55.673 C 306.680 56.185,316.448 56.213,316.825 55.705 C 316.875 55.637,317.735 55.417,318.734 55.217 C 319.734 55.016,320.597 54.785,320.651 54.702 C 320.705 54.620,321.110 54.417,321.549 54.251 C 321.989 54.085,322.685 53.735,323.097 53.474 C 323.508 53.213,323.896 53.000,323.958 53.000 C 324.371 53.000,327.124 50.030,327.589 49.083 C 327.769 48.717,327.968 48.393,328.031 48.365 C 328.094 48.336,328.305 47.774,328.501 47.115 C 328.697 46.456,328.945 45.737,329.053 45.516 C 329.338 44.936,329.328 38.804,329.042 38.708 C 328.927 38.670,328.833 38.503,328.833 38.337 C 328.833 37.880,328.172 35.833,328.024 35.833 C 327.953 35.833,327.774 35.580,327.626 35.269 C 327.478 34.959,327.127 34.443,326.845 34.122 C 326.564 33.802,326.333 33.464,326.333 33.372 C 326.333 33.280,326.165 33.094,325.958 32.958 C 325.752 32.822,325.283 32.440,324.917 32.109 C 324.550 31.778,324.164 31.506,324.059 31.504 C 323.955 31.502,323.826 31.387,323.773 31.250 C 323.720 31.112,323.412 30.873,323.088 30.719 C 322.765 30.565,322.500 30.384,322.500 30.317 C 322.500 30.251,322.144 30.026,321.708 29.818 C 321.273 29.610,320.879 29.388,320.833 29.325 C 320.787 29.262,320.450 29.057,320.083 28.869 C 317.789 27.692,317.388 27.507,317.125 27.504 C 316.965 27.502,316.833 27.434,316.833 27.353 C 316.833 27.272,316.402 27.033,315.875 26.821 C 315.348 26.610,314.879 26.384,314.833 26.318 C 314.787 26.253,314.337 26.001,313.833 25.758 C 311.382 24.578,309.965 23.520,309.470 22.500 C 309.270 22.087,309.032 21.700,308.942 21.640 C 308.648 21.442,308.741 19.069,309.056 18.754 C 309.208 18.601,309.333 18.363,309.333 18.225 C 309.333 17.898,310.732 16.500,311.058 16.500 C 311.196 16.500,311.422 16.387,311.560 16.250 C 312.167 15.643,318.234 15.549,318.663 16.141 C 318.711 16.206,319.500 16.437,320.417 16.653 C 321.333 16.870,322.121 17.103,322.167 17.171 C 322.212 17.240,322.737 17.447,323.333 17.633 C 323.929 17.818,324.642 18.088,324.917 18.234 C 325.499 18.542,325.833 18.574,325.833 18.321 C 325.833 18.223,325.942 18.034,326.074 17.902 C 326.207 17.769,326.448 17.212,326.611 16.664 C 326.774 16.115,326.959 15.667,327.023 15.667 C 327.087 15.667,327.307 15.160,327.511 14.542 C 327.716 13.923,327.934 13.379,327.996 13.333 C 328.058 13.287,328.290 12.725,328.512 12.083 C 328.734 11.442,328.972 10.892,329.041 10.861 C 329.563 10.631,328.924 10.106,327.575 9.657 C 326.938 9.445,326.267 9.178,326.083 9.063 C 325.900 8.948,325.112 8.691,324.333 8.491 C 323.554 8.292,322.842 8.072,322.750 8.004 C 322.465 7.790,319.868 7.332,318.314 7.222 C 317.500 7.164,316.833 7.053,316.833 6.975 C 316.833 6.790,312.880 6.790,312.766 6.975 M349.500 7.000 C 349.500 7.092,349.176 7.167,348.779 7.167 C 346.226 7.167,341.743 8.656,340.378 9.958 C 340.162 10.165,339.923 10.333,339.847 10.333 C 339.605 10.333,337.333 12.824,337.333 13.089 C 337.333 13.229,337.228 13.384,337.099 13.434 C 336.971 13.483,336.694 13.987,336.485 14.553 C 336.276 15.120,336.054 15.621,335.993 15.667 C 335.432 16.086,335.165 22.705,335.643 24.333 C 335.937 25.335,336.782 27.124,337.271 27.781 C 337.489 28.072,337.667 28.388,337.667 28.483 C 337.667 28.578,337.817 28.735,338.000 28.833 C 338.183 28.931,338.333 29.099,338.333 29.205 C 338.333 29.311,338.765 29.800,339.292 30.292 C 339.819 30.783,340.403 31.331,340.589 31.510 C 340.776 31.688,341.008 31.833,341.105 31.833 C 341.202 31.833,341.405 31.970,341.556 32.136 C 341.707 32.303,342.187 32.617,342.623 32.833 C 343.060 33.050,343.492 33.313,343.583 33.417 C 343.675 33.521,344.087 33.749,344.500 33.924 C 344.912 34.098,345.287 34.290,345.333 34.349 C 345.379 34.409,345.829 34.632,346.333 34.845 C 346.837 35.058,347.287 35.283,347.333 35.345 C 347.379 35.407,347.829 35.630,348.333 35.840 C 348.837 36.051,349.363 36.308,349.500 36.413 C 349.637 36.518,350.087 36.748,350.500 36.924 C 350.912 37.100,351.349 37.339,351.470 37.455 C 351.591 37.572,351.772 37.667,351.872 37.667 C 352.433 37.667,354.962 39.981,355.392 40.889 C 355.926 42.013,355.697 44.553,355.004 45.198 C 354.819 45.371,354.667 45.573,354.667 45.647 C 354.667 45.721,354.404 45.922,354.083 46.095 C 353.762 46.268,353.500 46.465,353.500 46.533 C 353.500 47.467,344.122 47.436,342.917 46.498 C 342.825 46.426,342.113 46.198,341.333 45.991 C 340.554 45.784,339.879 45.562,339.833 45.498 C 339.787 45.434,339.211 45.216,338.552 45.014 C 337.893 44.811,337.331 44.590,337.302 44.523 C 337.236 44.367,335.305 43.667,334.941 43.667 C 334.693 43.667,334.667 44.123,334.667 48.500 C 334.667 53.222,334.674 53.333,335.000 53.333 C 335.183 53.333,335.333 53.404,335.333 53.490 C 335.333 53.576,335.990 53.856,336.792 54.113 C 337.594 54.371,338.289 54.633,338.336 54.696 C 338.434 54.826,341.621 55.500,342.137 55.500 C 342.322 55.500,342.497 55.571,342.528 55.657 C 342.719 56.198,353.457 56.206,353.639 55.665 C 353.669 55.574,353.861 55.500,354.065 55.500 C 354.544 55.500,357.224 54.827,357.333 54.679 C 357.379 54.617,357.792 54.428,358.250 54.259 C 359.303 53.871,360.907 52.889,361.462 52.292 C 361.697 52.040,361.970 51.833,362.069 51.833 C 362.374 51.833,364.263 49.377,364.622 48.514 C 364.759 48.185,364.919 47.879,364.978 47.833 C 365.182 47.674,365.490 46.577,365.679 45.333 C 365.783 44.646,365.936 43.953,366.018 43.794 C 366.225 43.392,366.209 40.500,366.000 40.500 C 365.908 40.500,365.833 40.212,365.833 39.860 C 365.833 39.124,365.233 36.647,365.022 36.509 C 364.944 36.458,364.776 36.125,364.649 35.769 C 364.521 35.413,364.249 34.963,364.045 34.769 C 363.840 34.575,363.671 34.341,363.670 34.249 C 363.667 34.076,361.576 32.042,360.724 31.383 C 359.776 30.649,358.245 29.667,358.048 29.667 C 357.937 29.667,357.712 29.532,357.548 29.366 C 357.384 29.201,356.912 28.922,356.500 28.746 C 356.087 28.570,355.712 28.377,355.667 28.317 C 355.621 28.257,355.171 28.034,354.667 27.821 C 354.162 27.608,353.712 27.383,353.667 27.321 C 353.621 27.259,353.171 27.034,352.667 26.821 C 352.162 26.608,351.712 26.383,351.667 26.321 C 351.621 26.259,351.171 26.034,350.667 25.821 C 350.162 25.608,349.712 25.387,349.667 25.329 C 349.621 25.271,349.208 25.021,348.750 24.774 C 345.241 22.879,344.455 19.568,346.931 17.111 C 348.140 15.912,350.093 15.505,353.194 15.809 C 354.317 15.919,355.276 16.066,355.326 16.136 C 355.376 16.206,356.017 16.401,356.750 16.568 C 357.483 16.736,358.383 17.004,358.750 17.164 C 359.117 17.325,359.867 17.592,360.417 17.759 C 360.967 17.926,361.458 18.122,361.508 18.195 C 361.749 18.544,362.667 18.547,362.667 18.199 C 362.667 18.011,362.767 17.756,362.890 17.633 C 363.013 17.510,363.287 16.886,363.498 16.247 C 363.710 15.607,363.937 15.046,364.003 15.000 C 364.068 14.954,364.292 14.410,364.500 13.792 C 364.708 13.173,364.934 12.667,365.003 12.667 C 365.072 12.667,365.168 12.498,365.217 12.292 C 365.266 12.085,365.426 11.594,365.572 11.199 C 365.903 10.306,365.765 10.128,364.379 9.659 C 363.850 9.480,363.267 9.258,363.083 9.167 C 361.714 8.486,357.251 7.402,355.120 7.234 C 354.315 7.170,353.617 7.054,353.568 6.976 C 353.442 6.771,349.500 6.794,349.500 7.000 M184.946 7.776 C 184.671 8.051,184.821 55.293,185.097 55.399 C 185.766 55.656,194.295 55.507,194.399 55.236 C 194.747 54.328,194.347 22.479,193.982 22.092 C 193.900 22.005,193.833 21.258,193.833 20.433 C 193.833 18.642,193.990 18.717,194.496 20.750 C 194.701 21.575,194.930 22.326,195.005 22.418 C 195.080 22.511,195.306 23.261,195.508 24.085 C 195.710 24.909,195.932 25.621,196.001 25.667 C 196.070 25.712,196.295 26.425,196.500 27.250 C 196.705 28.075,196.923 28.787,196.984 28.833 C 197.045 28.879,197.274 29.629,197.493 30.500 C 197.712 31.371,197.941 32.121,198.002 32.167 C 198.062 32.212,198.279 32.923,198.483 33.746 C 198.688 34.569,198.917 35.319,198.993 35.413 C 199.069 35.507,199.301 36.258,199.509 37.083 C 199.716 37.908,199.935 38.621,199.995 38.667 C 200.055 38.712,200.277 39.425,200.490 40.250 C 200.703 41.075,200.932 41.825,201.000 41.917 C 201.068 42.008,201.297 42.758,201.510 43.583 C 201.723 44.408,201.948 45.121,202.010 45.167 C 202.073 45.212,202.290 45.924,202.492 46.748 C 202.694 47.572,202.914 48.284,202.982 48.331 C 203.049 48.378,203.278 49.129,203.491 50.000 C 203.703 50.871,203.937 51.660,204.011 51.754 C 204.084 51.848,204.312 52.593,204.517 53.410 C 205.085 55.673,204.629 55.500,210.033 55.500 L 214.658 55.500 214.973 54.792 C 215.146 54.402,215.423 53.558,215.588 52.917 C 215.753 52.275,215.943 51.675,216.010 51.583 C 216.076 51.492,216.297 50.817,216.500 50.083 C 216.703 49.350,216.928 48.675,217.000 48.583 C 217.072 48.492,217.297 47.817,217.500 47.083 C 217.703 46.350,217.928 45.675,218.000 45.583 C 218.072 45.492,218.297 44.817,218.500 44.083 C 218.703 43.350,218.928 42.675,219.000 42.583 C 219.072 42.492,219.297 41.817,219.500 41.083 C 219.703 40.350,219.928 39.675,220.000 39.583 C 220.072 39.492,220.296 38.822,220.499 38.096 C 220.702 37.369,220.932 36.656,221.012 36.512 C 221.091 36.368,221.316 35.650,221.513 34.917 C 221.709 34.183,221.928 33.508,222.000 33.417 C 222.072 33.325,222.297 32.650,222.500 31.917 C 222.703 31.183,222.928 30.508,223.000 30.417 C 223.072 30.325,223.297 29.650,223.500 28.917 C 223.703 28.183,223.928 27.508,224.000 27.417 C 224.072 27.325,224.297 26.650,224.500 25.917 C 224.703 25.183,224.928 24.508,225.000 24.417 C 225.072 24.325,225.296 23.656,225.499 22.929 C 225.702 22.202,225.938 21.490,226.024 21.346 C 226.110 21.201,226.325 20.596,226.502 20.000 L 226.823 18.917 226.750 20.250 C 226.710 20.983,226.629 29.216,226.570 38.544 L 226.463 55.505 231.356 55.461 L 236.250 55.417 236.292 31.542 L 236.334 7.667 229.251 7.667 C 223.065 7.667,222.167 7.698,222.167 7.917 C 222.167 8.054,222.103 8.167,222.026 8.167 C 221.949 8.167,221.717 8.785,221.510 9.542 C 221.303 10.298,221.075 10.992,221.002 11.083 C 220.929 11.175,220.703 11.850,220.500 12.583 C 220.297 13.317,220.069 13.993,219.993 14.087 C 219.917 14.181,219.688 14.931,219.483 15.754 C 219.279 16.577,219.057 17.287,218.990 17.333 C 218.922 17.379,218.695 18.054,218.484 18.833 C 218.274 19.612,218.049 20.287,217.984 20.333 C 217.920 20.379,217.695 21.054,217.484 21.833 C 217.274 22.613,217.050 23.287,216.987 23.333 C 216.924 23.379,216.705 24.017,216.501 24.750 C 216.298 25.483,216.072 26.158,216.000 26.250 C 215.928 26.342,215.706 27.017,215.507 27.750 C 215.307 28.483,215.046 29.308,214.927 29.583 C 214.807 29.858,214.573 30.608,214.407 31.250 C 214.240 31.892,214.051 32.454,213.986 32.500 C 213.921 32.546,213.695 33.221,213.484 34.000 C 213.274 34.779,213.049 35.454,212.984 35.500 C 212.920 35.546,212.695 36.221,212.484 37.000 C 212.274 37.779,212.050 38.454,211.987 38.500 C 211.924 38.546,211.708 39.183,211.508 39.917 C 211.308 40.650,211.045 41.475,210.923 41.750 C 210.801 42.025,210.651 42.493,210.588 42.790 C 210.456 43.415,210.167 43.681,210.167 43.177 C 210.167 42.988,210.106 42.833,210.033 42.833 C 209.959 42.833,209.728 42.125,209.520 41.259 C 209.311 40.394,209.090 39.663,209.028 39.634 C 208.967 39.606,208.737 38.871,208.517 38.000 C 208.298 37.129,208.062 36.342,207.994 36.250 C 207.925 36.158,207.706 35.483,207.507 34.750 C 207.307 34.017,207.046 33.192,206.926 32.917 C 206.806 32.642,206.575 31.854,206.412 31.167 C 206.249 30.479,206.064 29.879,206.000 29.833 C 205.936 29.787,205.711 29.075,205.500 28.250 C 205.289 27.425,205.065 26.712,205.002 26.667 C 204.940 26.621,204.721 25.910,204.516 25.086 C 204.312 24.263,204.089 23.550,204.021 23.503 C 203.954 23.455,203.730 22.744,203.525 21.922 C 203.319 21.100,203.098 20.387,203.034 20.338 C 202.969 20.290,202.735 19.537,202.514 18.667 C 202.293 17.796,202.063 17.046,202.004 17.000 C 201.945 16.954,201.723 16.242,201.510 15.417 C 201.297 14.592,201.068 13.842,201.000 13.750 C 200.932 13.658,200.703 12.908,200.490 12.083 C 200.277 11.258,200.052 10.546,199.989 10.500 C 199.925 10.454,199.724 9.817,199.540 9.083 L 199.207 7.750 192.133 7.707 C 188.242 7.683,185.008 7.714,184.946 7.776 M280.295 30.309 L 280.250 41.284 279.667 41.959 C 278.737 43.035,279.151 43.000,267.305 43.000 L 256.493 43.000 256.538 31.946 L 256.583 20.893 257.167 20.264 C 258.039 19.325,257.636 19.355,269.378 19.344 L 280.340 19.333 280.295 30.309 " stroke="none" fill="#14e4a4" fill-rule="evenodd"/>
  </g>
</svg>
