<?xml version="1.0" encoding="UTF-8" standalone="no"?>
<svg
   xmlns:dc="http://purl.org/dc/elements/1.1/"
   xmlns:cc="http://creativecommons.org/ns#"
   xmlns:rdf="http://www.w3.org/1999/02/22-rdf-syntax-ns#"
   xmlns:svg="http://www.w3.org/2000/svg"
   xmlns="http://www.w3.org/2000/svg"
   viewBox="0 0 1000 666.66669"
   height="666.66669"
   width="1000"
   xml:space="preserve"
   id="svg2"
   version="1.1"><metadata
     id="metadata8"><rdf:RDF><cc:Work
         rdf:about=""><dc:format>image/svg+xml</dc:format><dc:type
           rdf:resource="http://purl.org/dc/dcmitype/StillImage" /></cc:Work></rdf:RDF></metadata><defs
     id="defs6" /><g
     transform="matrix(1.3333333,0,0,-1.3333333,0,666.66667)"
     id="g10"><g
       transform="scale(0.1)"
       id="g12"><path
         id="path14"
         style="fill:#3454a9;fill-opacity:1;fill-rule:nonzero;stroke:none"
         d="M 7500,0 H 0 V 5000 H 7500 V 0" /><path
         id="path16"
         style="fill:#4464b6;fill-opacity:1;fill-rule:nonzero;stroke:none"
         d="m 984.297,402.309 c -152.734,267.652 -290.02,577.832 -354.285,879.201 -64.274,301.39 -24.59,641.13 177.508,873.75 122.64,141.18 298.21,237.02 390.12,399.86 139.01,246.3 42.78,552.39 52.9,835.03 13.63,380.81 245.33,746.26 583.96,921 338.63,174.74 770.73,151.85 1089.01,-57.69 158.13,-104.11 288.74,-249.61 458.35,-333.75 254.4,-126.2 558.34,-95.81 833.07,-23.96 274.75,71.86 541.67,182.39 824.34,209.76 282.66,27.37 597.74,-47.47 765.61,-276.52 179.42,-244.8 140.82,-579.61 111.9,-881.73 -28.92,-302.12 -21.14,-652.18 210.57,-848.22 144.92,-122.6 348.3,-155.41 498.27,-271.78 201.58,-156.43 268.71,-440.05 231.01,-692.4 C 6818.94,882.52 6687.68,625.051 6563.24,402.309 H 984.297" /><path
         id="path18"
         style="fill:#c9d8d7;fill-opacity:1;fill-rule:nonzero;stroke:none"
         d="m 2355.22,3252.01 71.71,-516.17 500.52,173.39 39.29,-156.89 -522.75,-180.14 c -89.25,-30.76 -184.9,25.35 -201.6,118.26 l -94.98,528.45 c -9.84,54.75 24.63,107.7 78.68,120.86 v 0 c 60.54,14.74 120.56,-26.05 129.13,-87.76" /><path
         id="path20"
         style="fill:#171d26;fill-opacity:1;fill-rule:nonzero;stroke:none"
         d="m 2385.33,3035.3 -195.75,-51.01 24.74,-137.62 188.46,63.03 -17.45,125.6" /><path
         id="path22"
         style="fill:#171d26;fill-opacity:1;fill-rule:nonzero;stroke:none"
         d="m 2416.81,2808.7 -179.94,-87.53 5.52,-30.71 c 6.59,-36.69 25.62,-67.5 51.58,-89.63 l 132.96,135.01 -10.12,72.86" /><path
         id="path24"
         style="fill:#171d26;fill-opacity:1;fill-rule:nonzero;stroke:none"
         d="m 2355.22,3252.01 c -0.93,6.7 -2.57,13.1 -4.65,19.26 l -204.55,-27.82 c -0.45,-8.06 -0.09,-16.27 1.39,-24.54 l 18.67,-103.85 202.6,40.09 -13.46,96.86" /><path
         id="path26"
         style="fill:#171d26;fill-opacity:1;fill-rule:nonzero;stroke:none"
         d="m 2696.53,2829.24 -1.67,-170.59 114.8,39.56 -12.05,166.04 -101.08,-35.01" /><path
         id="path28"
         style="fill:#171d26;fill-opacity:1;fill-rule:nonzero;stroke:none"
         d="m 2966.74,2752.34 -39.29,156.89 -30.12,-10.44 34.87,-158.35 34.54,11.9" /><path
         id="path30"
         style="fill:#171d26;fill-opacity:1;fill-rule:nonzero;stroke:none"
         d="m 2580.8,2619.34 7.08,172.26 -87.64,-30.35 -63.65,-191.15 c 2.47,0.72 4.94,1.25 7.4,2.1 l 136.81,47.14" /><path
         id="path32"
         style="fill:#f9acc1;fill-opacity:1;fill-rule:nonzero;stroke:none"
         d="m 3056.24,2858.47 -97.58,-73.89 -26.97,107.68 57.59,36.56 66.96,-70.35" /><path
         id="path34"
         style="fill:#171d26;fill-opacity:1;fill-rule:nonzero;stroke:none"
         d="m 2632.69,485.43 -20.84,3.019 c -11.09,1.61 -21.75,5.383 -31.37,11.11 l -71.97,42.863 c -35.39,21.078 -59.01,57.367 -63.94,98.258 v 0 h -160.28 l -1.81,28.129 6.41,-99.387 -2.83,-29.641 -9.16,-96.191 h 417.37 c -12.68,22.012 -34.92,37.969 -61.58,41.84" /><path
         id="path36"
         style="fill:#3b485a;fill-opacity:1;fill-rule:nonzero;stroke:none"
         d="M 2694.27,443.59 H 2276.9 l -4.04,-42.481 h 432.8 c 0,15.391 -4.15,29.922 -11.39,42.481" /><path
         id="path38"
         style="fill:#040606;fill-opacity:1;fill-rule:nonzero;stroke:none"
         d="m 2444.57,640.68 v 0 l -3.4,28.129 h -158.69 l 1.81,-28.129 h 160.28" /><path
         id="path40"
         style="fill:#3b485a;fill-opacity:1;fill-rule:nonzero;stroke:none"
         d="m 2456.9,1620.05 -245.61,752.88 h -716.93 l 119.18,-903.14 -144.4,-800.981 h 261.42 l 208.2,680.991 c 23.95,78.32 32.74,160.48 25.92,242.09 l -33.56,401.49 243.59,-548.73 48.33,-775.841 h 261.41 l 4.22,747.741 c 0.39,69.09 -10.34,137.81 -31.77,203.5" /><path
         id="path42"
         style="fill:#171d26;fill-opacity:1;fill-rule:nonzero;stroke:none"
         d="m 1841.92,485.43 -20.84,3.019 c -11.08,1.61 -21.74,5.391 -31.37,11.11 l -71.03,42.312 c -34.07,20.277 -51.3,60.098 -42.78,98.809 v 0 h -158.63 l 6.12,28.129 -28.09,-129.028 -9.16,-96.191 h 417.36 c -12.68,22.012 -34.92,37.969 -61.58,41.84" /><path
         id="path44"
         style="fill:#3b485a;fill-opacity:1;fill-rule:nonzero;stroke:none"
         d="m 1903.5,443.59 h -417.36 l -4.05,-42.481 h 432.81 c 0,15.391 -4.15,29.922 -11.4,42.481" /><path
         id="path46"
         style="fill:#040606;fill-opacity:1;fill-rule:nonzero;stroke:none"
         d="m 1675.9,640.68 v 0 l 6.19,28.129 h -158.7 l -6.12,-28.129 h 158.63" /><path
         id="path48"
         style="fill:#040606;fill-opacity:1;fill-rule:nonzero;stroke:none"
         d="m 1931.12,1993.38 249.9,66.82 -137.15,-66.29 c -32.06,-15.5 -48.65,-51.55 -39.56,-85.98 l 51.76,-196.02 -124.95,281.47" /><path
         id="path50"
         style="fill:#040606;fill-opacity:1;fill-rule:nonzero;stroke:none"
         d="m 1931.12,1993.38 -236.3,34.75 14.08,-10.32 c 64.42,-47.19 149.09,-56.49 222.22,-24.43 v 0" /><path
         id="path52"
         style="fill:#c9d8d7;fill-opacity:1;fill-rule:nonzero;stroke:none"
         d="m 1829.57,3347.65 h 413.49 c 75.07,0 130.16,-70.53 111.98,-143.36 l -27.31,-109.39 c -55.17,-221.02 -78.27,-448.82 -68.59,-676.4 l 9.4,-221.06 h -788.7 l 24.21,292.61 c 19.13,231.33 62.61,459.99 129.7,682.2 l 11.67,38.65 c 24.52,81.19 99.33,136.75 184.15,136.75" /><path
         id="path54"
         style="fill:#171d26;fill-opacity:1;fill-rule:nonzero;stroke:none"
         d="m 1504.05,2490.05 -2.71,-32.68 h 756.5 c -1.14,43.35 -1.1,86.69 0.14,129.97 H 1513.6 c -3.65,-32.37 -6.87,-64.8 -9.55,-97.29" /><path
         id="path56"
         style="fill:#171d26;fill-opacity:1;fill-rule:nonzero;stroke:none"
         d="m 1479.84,2197.44 h 788.7 l -5.53,129.97 h -772.42 l -10.75,-129.97" /><path
         id="path58"
         style="fill:#171d26;fill-opacity:1;fill-rule:nonzero;stroke:none"
         d="m 1530.86,2717.31 h 734.39 c 3.63,43.45 8.49,86.79 14.5,129.97 h -726.33 c -8.39,-43.16 -15.91,-86.49 -22.56,-129.97" /><path
         id="path60"
         style="fill:#171d26;fill-opacity:1;fill-rule:nonzero;stroke:none"
         d="m 2330.81,3107.22 h -715.89 c -12.06,-43.11 -23.24,-86.44 -33.53,-129.97 h 720.18 c 7.74,39.4 16.42,78.63 26.16,117.65 l 3.08,12.32" /><path
         id="path62"
         style="fill:#171d26;fill-opacity:1;fill-rule:nonzero;stroke:none"
         d="m 2243.06,3347.65 h -413.49 c -75.3,0 -142.61,-43.83 -173.95,-110.46 h 702.62 c -2.49,59.78 -51.57,110.46 -115.18,110.46" /><path
         id="path64"
         style="fill:#040606;fill-opacity:1;fill-rule:nonzero;stroke:none"
         d="m 2133.62,3328.36 41.09,106.23 -155.49,46.48 -9.27,-21.27 c 7.62,-23.76 19.25,-46.22 34.71,-65.83 23.08,-29.31 54.29,-51.87 88.96,-65.61" /><path
         id="path66"
         style="fill:#f9acc1;fill-opacity:1;fill-rule:nonzero;stroke:none"
         d="m 2044.66,3393.97 c -15.46,19.61 -27.09,42.07 -34.71,65.83 l -48.02,-102.28 c -22.7,-48.35 3.93,-105.45 55.56,-119.14 v 0 c 42.49,-11.28 86.62,11.47 102.09,52.63 l 14.04,37.35 c -34.67,13.74 -65.88,36.3 -88.96,65.61" /><path
         id="path68"
         style="fill:#f9acc1;fill-opacity:1;fill-rule:nonzero;stroke:none"
         d="m 2378.47,3667.72 c 13.56,-146.33 -79.6,-274.6 -208.08,-286.5 -128.47,-11.9 -243.61,97.08 -257.16,243.41 -13.55,146.34 79.61,274.61 208.08,286.51 128.48,11.9 243.61,-97.08 257.16,-243.42" /><path
         id="path70"
         style="fill:#542738;fill-opacity:1;fill-rule:nonzero;stroke:none"
         d="m 2009.95,3494.07 12.31,7.1 c 28.12,16.2 45.45,46.19 45.45,78.65 v 52.73 l 1.98,1.99 c 38.37,38.37 59.93,90.42 59.93,144.69 v 0 c 43.18,0 86.35,-0.27 127.69,12.19 20.67,6.23 40.78,15.23 58.82,27.09 18.04,11.86 -108,175.39 -154.05,148.4 -41.22,-24.17 -91.5,-24.53 -139.16,-27.85 -47.67,-3.31 -99.22,-12.33 -131.35,-47.7 -33.88,-37.29 -36.35,-92.87 -33.43,-143.17 3.04,-52.25 10.19,-105.34 32.98,-152.45 22.8,-47.11 67.91,-89.58 118.83,-101.67" /><path
         id="path72"
         style="fill:#040606;fill-opacity:1;fill-rule:nonzero;stroke:none"
         d="m 2303.79,3854.26 c -59.24,138.9 -261.22,259.92 -416.71,115.65 -86.55,-75.34 -33.17,-138.89 -27,-247.77 l 443.71,132.12" /><path
         id="path74"
         style="fill:#171d26;fill-opacity:1;fill-rule:nonzero;stroke:none"
         d="m 1860.08,3722.14 c 105.15,135.73 373.12,140.7 443.71,132.12 67.39,-18.19 44.37,-80.21 44.37,-80.21 -236.66,0 -422.48,-98.77 -469.83,-146.61 -63.38,30.7 -18.25,94.7 -18.25,94.7" /><path
         id="path76"
         style="fill:#171d26;fill-opacity:1;fill-rule:nonzero;stroke:none"
         d="m 1910.08,3564.5 c 135.46,132.38 305.93,170.88 452.79,167.99 9.42,-0.19 17.25,-7.36 18.5,-16.7 l 9.28,-69.16 c 1.42,-10.58 -6.05,-20.29 -16.63,-21.64 l -41.32,-5.27 c -16.87,-2.15 -33.61,4.76 -44.04,18.18 l -13.25,17.04 -6.03,-20.59 c -5.27,-18 -18.96,-32.32 -36.7,-38.39 l -47.25,-16.17 c -28.18,-9.64 -59.23,-5.69 -84.09,10.7 l -17.21,11.35 c -10.47,6.91 -23.66,8.27 -35.32,3.66 l -130.47,-51.56 -8.26,10.56" /><path
         id="path78"
         style="fill:#f9acc1;fill-opacity:1;fill-rule:nonzero;stroke:none"
         d="m 2040.05,3527.36 c 0,-38.84 -31.48,-70.33 -70.32,-70.33 -38.85,0 -70.34,31.49 -70.34,70.33 0,38.84 31.49,70.33 70.34,70.33 38.84,0 70.32,-31.49 70.32,-70.33" /><path
         id="path80"
         style="fill:#f46ba3;fill-opacity:1;fill-rule:nonzero;stroke:none"
         d="m 2003.01,3527.36 c 0,-18.39 -14.9,-33.29 -33.28,-33.29 -18.39,0 -33.29,14.9 -33.29,33.29 0,18.39 14.9,33.29 33.29,33.29 18.38,0 33.28,-14.9 33.28,-33.29" /><path
         id="path82"
         style="fill:#ffffff;fill-opacity:1;fill-rule:nonzero;stroke:none"
         d="m 2211.29,3653.13 c 0,-12.94 -10.5,-23.44 -23.45,-23.44 -12.94,0 -23.44,10.5 -23.44,23.44 0,12.95 10.5,23.45 23.44,23.45 12.95,0 23.45,-10.5 23.45,-23.45" /><path
         id="path84"
         style="fill:#ffffff;fill-opacity:1;fill-rule:nonzero;stroke:none"
         d="m 2361.2,3674.79 c 0,-11.96 -9.7,-21.66 -21.66,-21.66 -11.96,0 -21.65,9.7 -21.65,21.66 0,11.96 9.69,21.66 21.65,21.66 11.96,0 21.66,-9.7 21.66,-21.66" /><path
         id="path86"
         style="fill:#e3f5fd;fill-opacity:1;fill-rule:nonzero;stroke:none"
         d="m 3913.62,4357.96 c -24.02,15.68 -57.2,10.89 -99.05,-14.05 -173.72,-5.55 -345.19,64.84 -494.33,132.67 l -39.87,18.22 c -160.79,73.75 -326.93,149.83 -504.67,156.56 -70.91,2.69 -127.99,-7.38 -174.54,-30.76 -58.78,-29.53 -99.57,-82.92 -106.43,-139.35 -9.45,-77.64 40.11,-146.25 91.69,-209.89 216.46,-267.04 440.33,-542.97 728.24,-744 3.74,-20.46 12.63,-35.36 26.69,-44.56 2.34,-1.54 4.76,-2.85 7.26,-3.98 92.46,-41.67 288.31,190.89 400.31,362.16 74.15,113.4 133.1,227.36 165.98,320.87 37.04,105.35 36.6,171.33 -1.28,196.11" /><path
         id="path88"
         style="fill:#8cb6e5;fill-opacity:1;fill-rule:nonzero;stroke:none"
         d="m 3702.79,4226.02 c -45.69,7.83 -90.53,19.76 -134.47,34.48 34.37,33.85 72.77,63.43 118.75,76.59 l -0.16,0.55 c 45.22,-7.02 90.99,-10.21 136.98,-8.07 -27.27,-16.18 -67.57,-46.62 -121.1,-103.55 z m -161.78,-205.16 2.25,4.9 c -40.41,18.54 -79.48,40.22 -117.65,63.44 34.62,48.73 72.1,95.42 112.33,139.59 6.18,6.76 12.5,13.47 18.92,20.11 43.77,-14.97 88.52,-27.24 134.15,-35.63 -42.26,-46.37 -92.22,-108.66 -150,-192.41 z m -132.69,-212.94 c -40.63,13.87 -79.06,32.45 -115.64,54.36 35.49,74.9 77.21,146.84 124.55,214.86 38.37,-23.37 77.71,-45.21 118.47,-64 -8.48,-12.38 -17.1,-25.15 -25.91,-38.45 -42.23,-63.8 -75.38,-118.98 -101.47,-166.77 z M 3227.7,3701.64 c 16.94,50.1 36.61,99.26 58.79,147.3 21.59,-12.87 43.79,-24.67 66.76,-35.02 15.64,-7.05 31.68,-13.36 48.02,-19.03 -37.53,-70.26 -59.12,-123.58 -71.16,-163.52 -35.46,21.52 -69.5,45.13 -102.41,70.27 z m 88.61,-157.71 c -38.21,26.92 -75.22,55.3 -111.32,84.71 5.49,19.56 11.55,38.96 17.86,58.28 33.09,-25.08 67.36,-48.64 103.09,-70.13 -9.35,-35.18 -10.66,-58.43 -9.63,-72.86 z m -729.02,749.78 20.95,-20.74 c -0.31,-1.37 -0.6,-2.75 -0.91,-4.12 -3.17,3.91 -6.36,7.83 -9.53,11.75 -3.52,4.35 -7.02,8.72 -10.51,13.11 z m -78.96,170.4 c 12.38,-16.04 27.83,-31.81 45.64,-46.63 -4.56,-20.29 -7.44,-41 -8.29,-61.95 l -5.99,5.93 c -19.11,32.82 -31.84,66.97 -31.36,102.65 z m 191.06,169.73 c -11.2,-7.72 -22,-15.97 -32.16,-24.9 -20.22,0.42 -40.1,-0.07 -59.64,-1.52 0.06,0.03 0.11,0.06 0.15,0.09 26.53,13.33 56.92,22 91.65,26.33 z m 75.75,2.87 c 26.32,-1 52.39,-3.65 78.27,-7.53 -17,-11.43 -33.28,-23.6 -48.81,-36.48 -39.45,8.22 -77.94,13.4 -115.35,15.4 13.11,10.45 26.98,20.01 41.67,28.41 14.09,0.66 28.76,0.79 44.22,0.2 z m 449.99,-132.83 c -23.87,-13.88 -46.76,-29.77 -68.84,-47.77 -53.53,27.61 -108.15,54.19 -164.1,77.33 24.67,15.74 50.52,27.93 77.87,36.11 47.95,-18.2 95.31,-38.67 142.13,-59.78 4.33,-1.95 8.62,-3.93 12.94,-5.89 z m 89.04,-40.64 c 39.28,-17.87 80.1,-35.88 122.08,-52.69 -27.86,-18.23 -54.78,-37.82 -80.72,-58.67 -14.83,7.47 -29.53,15.01 -44.08,22.58 -23.5,12.24 -46.93,24.68 -70.37,37.12 -23.33,12.38 -46.85,24.84 -70.56,37.18 22.71,18.09 46.2,34.05 70.83,47.72 10.98,-5 21.99,-10 32.91,-15 z m 55.76,-118.54 c 26.65,21.14 54.3,40.99 82.98,59.33 66.23,-25.77 135.2,-48.08 205.74,-61.53 -40.43,-17.05 -74.73,-45.48 -105.77,-76.78 -62.99,22.12 -124.04,49.74 -182.95,78.98 z m -102.27,-150.62 c -10.68,7.42 -21.65,14.94 -32.51,22.43 37.44,42.63 78.4,82.1 122.28,118.04 59.24,-29.57 120.69,-57.62 184.19,-80.34 -4.9,-5.15 -9.75,-10.34 -14.5,-15.55 -40.86,-44.85 -78.89,-92.27 -114.01,-141.77 -49.82,30.92 -98.1,64.31 -145.45,97.19 z m -170.25,-176.7 c 35.74,67.05 78.88,130.1 128.21,187.9 11.25,-7.77 22.61,-15.56 33.68,-23.24 47.32,-32.86 95.57,-66.24 145.42,-97.22 -47.28,-68.02 -89.02,-139.92 -124.58,-214.75 -66.2,41.47 -126.39,93.42 -182.73,147.31 z m -63.39,-144.92 c 15.7,45.03 34.57,88.89 56.38,131.3 56.51,-53.85 116.92,-105.68 183.49,-147.17 -21.99,-47.46 -41.59,-96 -58.5,-145.47 -63.82,49.87 -123.53,105.14 -181.37,161.34 z m -5.31,-15.26 c 57.89,-56.09 117.7,-111.21 181.79,-160.91 -6.29,-19.04 -12.27,-38.18 -17.78,-57.46 -62.8,51.94 -122.69,107.18 -180.22,164.86 4.85,18 10.36,35.82 16.21,53.51 z m -149.33,147.32 76.42,-75.67 c 20.28,-20.08 40.69,-40.27 61.31,-60.38 -5.91,-17.47 -11.42,-35.07 -16.37,-52.84 -47.64,48.27 -93.77,98.05 -138.75,148.82 5.76,13.31 11.55,26.68 17.39,40.07 z m -131.67,130.37 120.5,-119.32 c -5.69,-13.05 -11.34,-26.05 -16.96,-39.03 -38.06,43.25 -75.33,87.14 -112.08,131.29 2.83,8.99 5.67,18.02 8.54,27.06 z m -11.72,11.59 c -2.69,-8.44 -5.33,-16.85 -7.97,-25.26 -36.71,44.28 -72.93,88.74 -108.88,133.07 0.44,2.17 0.97,4.32 1.43,6.48 z m -86.37,210.1 c 9.48,-4.99 18.94,-9.9 28.31,-14.71 20.22,-10.39 41.14,-21.13 61.05,-32.62 15.46,-8.91 30.42,-18.53 45.14,-28.48 -16.49,-39.34 -30.28,-79.12 -43.07,-118.68 l -116.76,115.61 c 6.58,27.11 15.11,53.43 25.33,78.88 z m -45.93,150.53 c 31.75,-9.2 63.2,-19.24 94.4,-29.95 -21.84,-31.34 -40.48,-64.84 -55.79,-100.09 -14.56,7.91 -28.95,16.18 -42.73,25.06 -10.24,6.58 -20.04,13.66 -29.33,21.02 7.41,29.35 18.72,57.61 33.45,83.96 z m -93.09,-21 c 2.52,14.45 7.46,28.57 14.53,42.06 21.51,-5.32 42.89,-11.01 64.16,-17.01 -13.42,-24.57 -24.03,-50.67 -31.43,-77.74 -19.44,16.91 -35.71,35.01 -47.26,52.69 z m 196.48,3.45 c -31.6,10.92 -63.47,21.14 -95.64,30.53 16.86,27.31 37.44,52.31 61.3,73.98 38.12,-1.14 77.4,-5.47 117.83,-13.33 -31.23,-27.59 -59.13,-58.13 -83.49,-91.18 z m 337.18,-151.88 c -54.17,30.56 -109.59,58.61 -166.15,84.06 30.66,42.65 63.64,76.42 99.28,101.92 56.7,-22.98 112.12,-49.72 166.45,-77.64 -34.79,-30.06 -67.65,-66.11 -99.58,-108.34 z m 102.23,-61.57 c -29.38,18.9 -59.22,36.91 -89.41,54.24 32.35,42.61 65.73,78.51 101.04,108.36 25.59,-13.28 50.95,-26.73 76.08,-40.08 23.48,-12.46 46.94,-24.91 70.48,-37.17 12.68,-6.6 25.5,-13.16 38.4,-19.69 -43.03,-35.71 -83.2,-74.81 -120.04,-116.9 -25.29,17.37 -50.8,34.68 -76.55,51.24 z m -78.96,-229.72 c -13.76,13.57 -27.45,27.26 -41.17,40.97 -24.41,24.4 -49.12,48.98 -74.4,73.17 19.13,37.37 39.51,73.77 61.81,108.29 11.38,17.61 22.88,33.95 34.44,49.71 30.52,-17.48 60.67,-35.66 90.35,-54.74 25.18,-16.19 50.16,-33.14 74.95,-50.16 -48.72,-57.24 -91.51,-119.5 -127.13,-185.68 -6.33,6.14 -12.61,12.28 -18.85,18.44 z m -122.44,100.44 c 24.05,-23.1 47.62,-46.56 70.9,-69.84 13.74,-13.73 27.46,-27.44 41.25,-41.04 7.31,-7.21 14.71,-14.41 22.14,-21.59 -21.92,-42.19 -40.99,-85.81 -56.95,-130.6 -18.92,18.5 -37.68,37.05 -56.32,55.5 l -80.43,79.63 c 18.87,43 38.41,86 59.41,127.94 z m -11.13,10.56 c -21.05,-41.78 -40.6,-84.61 -59.43,-127.45 l -121.81,120.6 c 13,40.53 26.99,81.32 43.71,121.59 48.98,-34.42 94.25,-73.71 137.53,-114.74 z m -81.37,226.16 c 5.59,9.07 11.37,17.44 17.12,25.87 56.41,-25.29 111.68,-53.15 165.69,-83.56 -11.4,-15.59 -22.73,-31.74 -33.94,-49.09 -21.84,-33.8 -41.78,-69.34 -60.55,-105.76 -43.52,41.1 -89.15,80.43 -138.65,114.94 14.36,33.13 30.71,65.84 50.33,97.6 z m -106.29,-61.6 c -20.22,11.67 -41.3,22.49 -61.68,32.96 -9.71,4.99 -19.53,10.09 -29.35,15.27 15.57,36.03 34.76,70.14 57.3,101.98 48.6,-17.1 96.46,-36.03 143.56,-56.74 -5.37,-7.93 -10.78,-15.7 -16.01,-24.17 -19.5,-31.57 -35.76,-63.98 -50.09,-96.73 -14.25,9.57 -28.76,18.8 -43.73,27.43 z m 76.62,266.8 c 16.44,13.1 33.66,25.46 51.71,36.93 59.01,-10.49 116.93,-27.45 173.96,-48.13 -25.57,-9.26 -50.03,-21.42 -73.23,-37.23 -16.46,6.56 -33.01,12.9 -49.72,18.73 -34.89,12.19 -69.11,21.93 -102.72,29.7 z m 97.89,-43.53 c 13.7,-4.79 27.32,-9.85 40.88,-15.15 -34.87,-26.27 -67.28,-59.97 -97.35,-102.26 -46.85,20.67 -94.44,39.63 -142.76,56.74 25.23,33.66 54.27,64.61 86.86,92.33 36.66,-7.95 74.08,-18.29 112.37,-31.66 z m -341.16,44.85 c 23.5,2.95 47.61,4.36 72.21,4.43 -21.23,-21.03 -39.64,-44.7 -55,-70.22 -21.23,6.02 -42.58,11.7 -64.04,17.06 11.93,18.35 27.82,34.93 46.83,48.73 z m -19.51,-248.86 c -0.03,22.34 2.18,44.48 6.56,66.14 7.97,-6.06 16.24,-11.96 24.92,-17.55 14.57,-9.37 29.71,-18.02 44.97,-26.29 -9.67,-23.88 -17.82,-48.54 -24.35,-73.88 z m 1306.76,6.72 c -0.02,-0.01 -0.04,-0.01 -0.06,-0.02 0,0 -0.03,0 -0.05,0 -191.39,-23.69 -382.48,54.04 -546.55,128.67 l -39.87,18.22 c -160.79,73.75 -326.93,149.83 -504.67,156.56 -70.91,2.69 -127.99,-7.38 -174.54,-30.76 -58.78,-29.53 -99.57,-82.92 -106.43,-139.35 -9.45,-77.64 40.11,-146.25 91.69,-209.89 218.56,-269.62 444.56,-548.43 736.51,-749.92 l 23.03,-15.79 -12.36,25.19 c -0.2,0.41 -9.06,20.67 5.54,78.08 1.18,-0.69 2.32,-1.42 3.51,-2.1 l 7.31,12.71 c -2.28,1.31 -4.51,2.71 -6.78,4.04 19.33,66.07 66.82,173.81 178.84,343.02 229.04,345.99 344.6,366.47 346.52,366.77 0.03,0 0.06,0 0.09,0 l -1.73,14.57" /><path
         id="path90"
         style="fill:#5082bb;fill-opacity:1;fill-rule:nonzero;stroke:none"
         d="m 3888.38,4321.79 c -11.46,5.16 -50.32,-3.84 -124.93,-73.44 -69.98,-65.28 -148.32,-162.1 -220.59,-272.63 -72.28,-110.53 -129.56,-221.12 -161.3,-311.39 -35.11,-99.86 -25.92,-138.33 -16.14,-144.72 29.97,-19.67 174.62,82.31 346.68,345.43 72.28,110.53 129.57,221.12 161.32,311.4 35.11,99.86 25.9,138.32 16.13,144.71 -0.36,0.23 -0.75,0.45 -1.17,0.64 z m -539.77,-842.97 c -2.5,1.13 -4.92,2.44 -7.26,3.98 -37.89,24.77 -38.33,90.76 -1.29,196.11 32.88,93.52 91.83,207.47 165.98,320.88 74.16,113.4 154.92,213.09 227.41,280.71 81.66,76.17 142.27,102.2 180.17,77.46 37.88,-24.78 38.32,-90.76 1.28,-196.11 -32.88,-93.51 -91.83,-207.47 -165.98,-320.87 -112,-171.27 -307.85,-403.83 -400.31,-362.16" /><path
         id="path92"
         style="fill:#5082bb;fill-opacity:1;fill-rule:nonzero;stroke:none"
         d="m 2471.1,2001.28 c -3.35,0 -6.73,0.88 -9.82,2.7 -9.13,5.44 -12.12,17.24 -6.7,26.37 l 881.79,1481.69 c 5.44,9.12 17.24,12.12 26.37,6.69 9.13,-5.43 12.12,-17.24 6.69,-26.37 L 2487.65,2010.68 c -3.6,-6.04 -9.99,-9.4 -16.55,-9.4" /><path
         id="path94"
         style="fill:#f9acc1;fill-opacity:1;fill-rule:nonzero;stroke:none"
         d="m 3057.89,3095.67 -65.24,-118.5 c -3.51,-6.36 -5.37,-13.5 -5.42,-20.76 l -0.21,-31.4 2.26,3.81 c 6.58,11.06 21.97,12.66 30.68,3.19 v 0 c 5.76,-6.26 6.73,-15.56 2.38,-22.87 l -43.8,-73.61 77.7,22.94 56.08,36.94 c 6.19,4.07 10.57,10.37 12.24,17.59 l 31.72,137.05 c 3.29,14.18 -4.5,28.59 -18.17,33.6 l -56.75,20.8 c -8.92,3.27 -18.89,-0.46 -23.47,-8.78" /><path
         id="path96"
         style="fill:#f89ab6;fill-opacity:1;fill-rule:nonzero;stroke:none"
         d="m 3057.89,3095.67 -28.68,6.2 c -10.15,2.19 -20.45,-3.08 -24.62,-12.6 l -24.24,-55.37 c -3.99,-9.11 -0.33,-19.76 8.43,-24.49 v 0 c 9.24,-4.97 20.75,-1.57 25.8,7.61 l 43.31,78.65" /><path
         id="path98"
         style="fill:#829ba6;fill-opacity:1;fill-rule:nonzero;stroke:none"
         d="m 1706.41,2608.12 c 0.6,-7.04 1.67,-13.94 2.95,-20.78 h 393.03 l -132.66,71.31 -10.97,58.66 h -261.74 l 9.39,-109.19" /><path
         id="path100"
         style="fill:#c9d8d7;fill-opacity:1;fill-rule:nonzero;stroke:none"
         d="m 1865.16,3218.38 -207.92,-38.12 6.28,-73.04 h 222.41 l -20.77,111.16" /><path
         id="path102"
         style="fill:#829ba6;fill-opacity:1;fill-rule:nonzero;stroke:none"
         d="m 1685.85,2847.28 h 248.64 l -24.28,129.97 h -235.53 l 11.17,-129.97" /><path
         id="path104"
         style="fill:#829ba6;fill-opacity:1;fill-rule:nonzero;stroke:none"
         d="m 1866.51,2422.2 396.5,-94.79 -24.65,129.96 h -447.47 c 22.14,-16.33 47.68,-28.49 75.62,-35.17" /><path
         id="path106"
         style="fill:#040606;fill-opacity:1;fill-rule:nonzero;stroke:none"
         d="m 1790.89,2457.37 h 447.47 l -12.02,63.36 -123.95,66.61 h -393.03 c 9.91,-52.77 39.48,-98.95 81.53,-129.97" /><path
         id="path108"
         style="fill:#040606;fill-opacity:1;fill-rule:nonzero;stroke:none"
         d="m 1697.02,2717.31 h 261.74 l -24.27,129.97 h -248.64 l 11.17,-129.97" /><path
         id="path110"
         style="fill:#040606;fill-opacity:1;fill-rule:nonzero;stroke:none"
         d="m 1910.21,2977.25 -24.28,129.97 h -222.41 l 11.16,-129.97 h 235.53" /><path
         id="path112"
         style="fill:#f9acc1;fill-opacity:1;fill-rule:nonzero;stroke:none"
         d="m 2449.07,2398.18 78.19,-25.25 116.44,19.73 c 20.05,3.38 40.31,-4.68 52.53,-20.92 l 21.68,-28.82 c 9.78,-13 10.82,-30.59 2.65,-44.65 l -51.17,-88.13 c -11.95,-20.58 -38.63,-27.04 -58.67,-14.23 l -101.1,64.66 -104.83,45.18 44.28,92.43" /><path
         id="path114"
         style="fill:#040606;fill-opacity:1;fill-rule:nonzero;stroke:none"
         d="m 2449.07,2398.18 -16.43,-104.43 -27.85,12 z" /><path
         id="path116"
         style="fill:#c9d8d7;fill-opacity:1;fill-rule:nonzero;stroke:none"
         d="m 1861.95,3239.47 91.82,-602.21 506.16,-216.4 -69.1,-144.27 -489.28,178.97 c -75.6,27.64 -130.84,93.36 -145.08,172.58 l -103.63,576.6 c -9.91,55.15 24.81,108.48 79.24,121.73 v 0 c 60.43,14.72 120.49,-25.52 129.87,-87" /><path
         id="path118"
         style="fill:#171d26;fill-opacity:1;fill-rule:nonzero;stroke:none"
         d="m 1902.41,2974.09 -201.47,-36.94 21.84,-121.55 198.26,36.35 -18.63,122.14" /><path
         id="path120"
         style="fill:#171d26;fill-opacity:1;fill-rule:nonzero;stroke:none"
         d="m 1865.16,3218.38 -207.92,-38.12 21.85,-121.55 204.69,37.53 -18.62,122.14" /><path
         id="path122"
         style="fill:#171d26;fill-opacity:1;fill-rule:nonzero;stroke:none"
         d="m 1936.19,2752.58 -192.83,-51.49 13.11,-72.95 c 3.15,-17.52 8.41,-34.32 15.35,-50.25 l 177.57,88.11 -13.2,86.58" /><path
         id="path124"
         style="fill:#171d26;fill-opacity:1;fill-rule:nonzero;stroke:none"
         d="m 2459.93,2420.86 -26.11,11.16 -72.99,-144.45 30,-10.98 69.1,144.27" /><path
         id="path126"
         style="fill:#171d26;fill-opacity:1;fill-rule:nonzero;stroke:none"
         d="m 2226.34,2520.73 -85.44,-152.72 110.99,-40.6 82.35,147.19 -107.9,46.13" /><path
         id="path128"
         style="fill:#171d26;fill-opacity:1;fill-rule:nonzero;stroke:none"
         d="m 2014.98,2611.1 -122.87,-151.73 c 3.13,-1.31 6.23,-2.64 9.44,-3.81 l 128.36,-46.96 88.54,158.26 -103.47,44.24" /><path
         id="path130"
         style="fill:#fbcf2f;fill-opacity:1;fill-rule:nonzero;stroke:none"
         d="m 4119.89,3820.46 c -50.58,99.4 -177.02,134.9 -272.96,71.86 -71.24,-46.81 -102.46,-138.14 -74.49,-218.66 24.44,-70.35 83.73,-115.15 149.58,-125.5 34.76,-5.45 65.05,-26.55 81.01,-57.9 l 17.49,-34.37 115.62,58.84 -17.5,34.38 c -15.78,31.02 -15.65,67.73 0.39,98.61 27.14,52.24 29.59,116.27 0.86,172.74" /><path
         id="path132"
         style="fill:#30363f;fill-opacity:1;fill-rule:nonzero;stroke:none"
         d="m 4137.99,3383.35 -12.36,-6.28 c -4.01,-2.04 -8.9,-0.44 -10.93,3.56 l -14.07,27.64 c -2.04,4 -0.44,8.89 3.56,10.92 l 12.37,6.28 c 4,2.04 8.89,0.44 10.92,-3.56 l 14.07,-27.64 c 2.03,-4 0.44,-8.88 -3.56,-10.92" /><path
         id="path134"
         style="fill:#364352;fill-opacity:1;fill-rule:nonzero;stroke:none"
         d="m 4020.52,3455.89 115.62,58.84 16.82,-33.06 c 15.31,-30.1 3.34,-66.9 -26.76,-82.22 l -6.65,-3.39 c -30.1,-15.3 -66.9,-3.33 -82.21,26.77 l -16.82,33.06" /><path
         id="path136"
         style="fill:#ffffff;fill-opacity:1;fill-rule:nonzero;stroke:none"
         d="m 4048.86,3667.34 c -6.15,-3.13 -18.96,5.09 -27.5,21.88 -8.55,16.79 -7.65,31.98 -1.5,35.11 6.16,3.13 18.97,-5.08 27.51,-21.87 8.55,-16.8 7.65,-31.98 1.49,-35.12 z m -127.85,-29.18 c -8.55,16.79 -7.64,31.98 -1.49,35.11 6.14,3.13 18.96,-5.08 27.5,-21.87 8.55,-16.8 7.65,-31.99 1.5,-35.12 -6.16,-3.13 -18.97,5.08 -27.51,21.88 z m 50.17,25.53 c -8.54,16.79 -7.64,31.98 -1.49,35.11 6.15,3.13 18.96,-5.08 27.51,-21.88 8.54,-16.79 7.63,-31.98 1.49,-35.11 -6.15,-3.13 -18.96,5.08 -27.51,21.88 z m 44.9,68.07 c -11.46,-5.83 -12.41,-26.18 -2.16,-46.33 6,-11.79 14.32,-20.38 22.49,-24.42 l -25.27,-12.86 c 1.55,8.98 -0.51,20.77 -6.51,32.56 -10.25,20.14 -27.27,31.36 -38.72,25.53 -11.47,-5.84 -12.41,-26.19 -2.16,-46.33 6,-11.8 14.32,-20.39 22.48,-24.44 l -25.25,-12.85 c 1.53,8.98 -0.52,20.76 -6.53,32.56 -10.24,20.14 -27.25,31.35 -38.72,25.52 -11.46,-5.83 -12.41,-26.18 -2.16,-46.32 10.26,-20.15 27.26,-31.36 38.72,-25.53 l 19.81,10.08 75.86,-149.08 7.43,3.78 -75.86,149.08 45.88,23.34 75.86,-149.07 7.43,3.78 -75.86,149.07 19.81,10.08 c 11.45,5.83 12.41,26.18 2.15,46.33 -10.25,20.15 -27.26,31.35 -38.72,25.52" /><path
         id="path138"
         style="fill:#fbcf2f;fill-opacity:1;fill-rule:nonzero;stroke:none"
         d="m 3852.01,3930.05 c -5.47,-2.78 -12.17,-0.6 -14.95,4.87 l -42.66,83.83 c -2.79,5.48 -0.6,12.17 4.87,14.96 5.48,2.79 12.17,0.61 14.95,-4.87 l 42.66,-83.83 c 2.79,-5.47 0.61,-12.17 -4.87,-14.96" /><path
         id="path140"
         style="fill:#fbcf2f;fill-opacity:1;fill-rule:nonzero;stroke:none"
         d="m 3755.06,3833.2 c -2.79,-5.47 -9.49,-7.64 -14.96,-4.85 l -83.79,42.75 c -5.47,2.79 -7.64,9.49 -4.85,14.96 2.79,5.47 9.49,7.64 14.96,4.85 l 83.79,-42.75 c 5.47,-2.79 7.64,-9.49 4.85,-14.96" /><path
         id="path142"
         style="fill:#fbcf2f;fill-opacity:1;fill-rule:nonzero;stroke:none"
         d="m 3733.55,3697.86 c 0.96,-6.06 -3.18,-11.76 -9.25,-12.71 l -92.91,-14.67 c -6.07,-0.96 -11.76,3.18 -12.72,9.25 -0.96,6.07 3.19,11.76 9.25,12.72 l 92.91,14.66 c 6.07,0.96 11.77,-3.18 12.72,-9.25" /><path
         id="path144"
         style="fill:#fbcf2f;fill-opacity:1;fill-rule:nonzero;stroke:none"
         d="m 3795.7,3575.73 c 4.34,-4.35 4.34,-11.39 -0.01,-15.73 l -66.54,-66.48 c -4.35,-4.34 -11.39,-4.34 -15.73,0.01 -4.34,4.35 -4.34,11.39 0.01,15.72 l 66.55,66.49 c 4.34,4.33 11.38,4.33 15.72,-0.01" /><path
         id="path146"
         style="fill:#fbcf2f;fill-opacity:1;fill-rule:nonzero;stroke:none"
         d="m 3917.77,3513.45 c 6.07,-0.97 10.2,-6.67 9.24,-12.73 l -14.76,-92.9 c -0.97,-6.07 -6.66,-10.2 -12.73,-9.24 -6.06,0.97 -10.2,6.66 -9.24,12.73 l 14.77,92.9 c 0.96,6.06 6.66,10.2 12.72,9.24" /><path
         id="path148"
         style="fill:#fbcf2f;fill-opacity:1;fill-rule:nonzero;stroke:none"
         d="m 4150.09,3631.67 c 2.79,5.46 9.49,7.64 14.96,4.84 l 83.79,-42.75 c 5.47,-2.78 7.64,-9.48 4.85,-14.96 -2.79,-5.46 -9.49,-7.64 -14.96,-4.84 l -83.79,42.74 c -5.47,2.8 -7.65,9.49 -4.85,14.97" /><path
         id="path150"
         style="fill:#fbcf2f;fill-opacity:1;fill-rule:nonzero;stroke:none"
         d="m 4171.6,3767 c -0.96,6.07 3.19,11.76 9.25,12.72 l 92.91,14.67 c 6.07,0.95 11.77,-3.19 12.72,-9.25 0.96,-6.07 -3.18,-11.76 -9.24,-12.72 l -92.92,-14.67 c -6.07,-0.95 -11.76,3.19 -12.72,9.25" /><path
         id="path152"
         style="fill:#fbcf2f;fill-opacity:1;fill-rule:nonzero;stroke:none"
         d="m 4109.45,3889.14 c -4.34,4.35 -4.34,11.39 0,15.73 l 66.56,66.47 c 4.34,4.34 11.38,4.34 15.72,0 4.34,-4.35 4.34,-11.39 0,-15.73 l -66.55,-66.48 c -4.35,-4.34 -11.39,-4.34 -15.73,0.01" /><path
         id="path154"
         style="fill:#fbcf2f;fill-opacity:1;fill-rule:nonzero;stroke:none"
         d="m 3987.38,3951.42 c -6.07,0.96 -10.2,6.66 -9.24,12.73 l 14.77,92.9 c 0.96,6.06 6.66,10.2 12.72,9.24 6.07,-0.97 10.2,-6.67 9.24,-12.74 l -14.76,-92.9 c -0.97,-6.06 -6.66,-10.2 -12.73,-9.23" /><path
         id="path156"
         style="fill:#8cb6e5;fill-opacity:1;fill-rule:nonzero;stroke:none"
         d="m 4136.24,499.699 v 627.571 h -97.38 V 499.699 l -368.47,-97.39 h 834.33 l -368.48,97.39" /><path
         id="path158"
         style="fill:#a5d2f1;fill-opacity:1;fill-rule:nonzero;stroke:none"
         d="m 3460.99,2529.86 -47.51,278.57 47.4,8.09 47.51,-278.57 -47.4,-8.09" /><path
         id="path160"
         style="fill:#a5d2f1;fill-opacity:1;fill-rule:nonzero;stroke:none"
         d="m 3642.12,2529.86 -47.51,278.57 47.41,8.09 47.51,-278.57 -47.41,-8.09" /><path
         id="path162"
         style="fill:#5881ca;fill-opacity:1;fill-rule:nonzero;stroke:none"
         d="m 4997.18,1303.39 h -692.13 c -44.68,0 -82.56,31.97 -90.07,76.01 l -211.99,1243.07 c -5.81,34.03 -38.13,56.89 -72.14,51.12 h -815.44 l 225.1,-1379.82 230.83,-115.41 h 733.71 199.67 492.46 c 34.53,0 62.52,27.99 62.52,62.51 0,34.53 -27.99,62.52 -62.52,62.52" /><path
         id="path164"
         style="fill:#3454a9;fill-opacity:1;fill-rule:nonzero;stroke:none"
         d="m 4316.09,1178.36 h -826.48 c -105.82,0 -195.54,75.71 -213.33,180.02 l -211.99,1243.07 c -5.81,34.03 17.08,66.33 51.12,72.14 34.01,5.77 66.33,-17.09 72.13,-51.12 l 212,-1243.07 c 7.51,-44.04 45.39,-76.01 90.07,-76.01 h 826.48 c 34.54,0 62.52,-27.99 62.52,-62.52 0,-34.52 -27.98,-62.51 -62.52,-62.51" /><path
         id="path166"
         style="fill:#5881ca;fill-opacity:1;fill-rule:nonzero;stroke:none"
         d="m 3835.22,2832.69 -33.85,198.56 c -5.22,30.56 -31.8,52.08 -61.81,51.94 l -0.01,0.06 h -472.67 l 43.77,-323.6 h 462.88 c 3.48,0 7.03,0.3 10.58,0.9 34.03,5.81 56.92,38.1 51.11,72.14" /><path
         id="path168"
         style="fill:#3454a9;fill-opacity:1;fill-rule:nonzero;stroke:none"
         d="m 3300.07,2759.65 c -29.91,0 -56.35,21.54 -61.55,52.02 l -33.86,198.55 c -5.8,34.04 17.08,66.34 51.12,72.14 34.03,5.83 66.32,-17.08 72.14,-51.11 l 33.85,-198.56 c 5.8,-34.04 -17.08,-66.33 -51.12,-72.14 -3.55,-0.6 -7.09,-0.9 -10.58,-0.9" /><path
         id="path170"
         style="fill:#4a77c5;fill-opacity:1;fill-rule:nonzero;stroke:none"
         d="m 3644.81,2167.81 -116.7,-603.6 c -26.16,-135.25 77.46,-260.82 215.22,-260.82 h 435.2 l 41.26,58.63 c -2.12,5.54 -3.77,11.33 -4.81,17.38 l -204.49,1199.08 c -187.34,-59.34 -328.15,-216.55 -365.68,-410.67" /><path
         id="path172"
         style="fill:#040606;fill-opacity:1;fill-rule:nonzero;stroke:none"
         d="m 4239.99,1127.27 h -304.88 c -55.51,0 -109.52,17.92 -154.02,51.09 v 0 h 612.92 v 0 c -44.5,-33.17 -98.51,-51.09 -154.02,-51.09" /><path
         id="path174"
         style="fill:#f9acc1;fill-opacity:1;fill-rule:nonzero;stroke:none"
         d="m 5062.9,509.32 -16.72,34.012 c -3.37,6.859 0.4,15.078 7.79,17.008 l 59.43,15.5 -11.22,92.969 h -158.7 l 6.41,-99.387 -2.82,-29.641 h 84.57 l 31.26,-30.461" /><path
         id="path176"
         style="fill:#040606;fill-opacity:1;fill-rule:nonzero;stroke:none"
         d="m 5293.69,485.43 -20.84,3.019 c -11.08,1.61 -21.75,5.383 -31.37,11.11 l -128.08,76.281 -59.43,-15.5 c -7.39,-1.93 -11.16,-10.149 -7.79,-17.008 l 16.72,-34.012 -31.26,30.461 h -84.57 l -9.16,-96.191 h 417.36 c -12.68,22.012 -34.92,37.969 -61.58,41.84" /><path
         id="path178"
         style="fill:#cfd1ce;fill-opacity:1;fill-rule:nonzero;stroke:none"
         d="m 4937.91,443.59 -4.04,-42.481 h 432.8 c 0,15.391 -4.16,29.922 -11.4,42.481 h -417.36" /><path
         id="path180"
         style="fill:#040606;fill-opacity:1;fill-rule:nonzero;stroke:none"
         d="m 4943.48,668.809 h 158.7 l 3.39,-28.129 h -160.28 l -1.81,28.129" /><path
         id="path182"
         style="fill:#3b485a;fill-opacity:1;fill-rule:nonzero;stroke:none"
         d="m 3945.21,1624.18 h 999.77 c 106.45,0 192.68,-86.4 192.48,-192.84 l -1.43,-762.531 h -261.42 l 0.32,634.781 H 4187.2 c -167.1,0 -287.8,159.89 -241.99,320.59 v 0" /><path
         id="path184"
         style="fill:#040606;fill-opacity:1;fill-rule:nonzero;stroke:none"
         d="m 4539.53,1303.59 h 335.4 v -272.51 l 75.25,210.64 c 60.59,169.65 -47.02,352.81 -224.7,382.46 v 0 h -189.04 l 3.09,-320.59" /><path
         id="path186"
         style="fill:#f89ab6;fill-opacity:1;fill-rule:nonzero;stroke:none"
         d="m 5288.1,1900.81 -32.8,20.12 c -21.93,13.45 -49.02,15.51 -72.73,5.51 l -116.11,-48.99 h -405.9 l -166.06,498.53 -137.12,-106.6 148.88,-430.63 c 16.07,-46.5 59.87,-77.71 109.07,-77.71 h 451.13 v -0.35 h 34.28 c 34.7,0 68.43,11.41 96.02,32.45 l 38.02,29.01 1.58,-40.34 c 0.42,-10.82 10.77,-18.44 21.23,-15.64 6.7,1.8 11.61,7.5 12.39,14.39 l 7.28,64.03 9.49,-42.82 c 2.46,-11.15 13.76,-17.95 24.76,-14.91 8.65,2.38 14.64,10.25 14.64,19.21 v 26.73 c 0,27.75 -14.41,53.5 -38.05,68.01" /><path
         id="path188"
         style="fill:#f14078;fill-opacity:1;fill-rule:nonzero;stroke:none"
         d="m 4571.88,2177.38 -77.38,198.6 -2.76,-2.15 -32.9,-261.86 113.04,65.41" /><path
         id="path190"
         style="fill:#ec1f60;fill-opacity:1;fill-rule:nonzero;stroke:none"
         d="m 4491.74,2373.83 -134.36,-104.45 39.39,-193.33 62.07,35.92 32.9,261.86" /><path
         id="path192"
         style="fill:#f14078;fill-opacity:1;fill-rule:nonzero;stroke:none"
         d="m 4396.77,2076.05 11.32,-55.53 42.33,24.49 8.42,66.96 -62.07,-35.92" /><path
         id="path194"
         style="fill:#f35f9e;fill-opacity:1;fill-rule:nonzero;stroke:none"
         d="m 4571.88,2177.38 -113.04,-65.41 -8.42,-66.96 141.21,81.71 -19.75,50.66" /><path
         id="path196"
         style="fill:#040606;fill-opacity:1;fill-rule:nonzero;stroke:none"
         d="m 4579.8,2119.87 -142.27,-82.32 15.97,-46.18 z" /><path
         id="path198"
         style="fill:#a5d2f1;fill-opacity:1;fill-rule:nonzero;stroke:none"
         d="M 5701.59,1760.69 H 5212.7 v 61.46 h 488.89 v -61.46" /><path
         id="path200"
         style="fill:#8cb6e5;fill-opacity:1;fill-rule:nonzero;stroke:none"
         d="m 5212.7,1822.15 -292.47,-61.46 h 292.47 z" /><path
         id="path202"
         style="fill:#5881ca;fill-opacity:1;fill-rule:nonzero;stroke:none"
         d="m 6204.17,2010.25 h -987.73 c -20.25,0 -35.44,18.5 -31.52,38.35 l 130.54,659.93 c 3.72,18.8 20.21,32.35 39.38,32.35 h 987.74 c 20.23,0 35.43,-18.49 31.5,-38.35 l -130.54,-659.92 c -3.72,-18.8 -20.21,-32.36 -39.37,-32.36" /><path
         id="path204"
         style="fill:#8cb6e5;fill-opacity:1;fill-rule:nonzero;stroke:none"
         d="m 6268.4,2010.25 h -987.74 c -20.24,0 -35.43,18.5 -31.5,38.35 l 130.53,659.93 c 3.72,18.8 20.21,32.35 39.38,32.35 h 987.74 c 20.24,0 35.43,-18.49 31.5,-38.35 l -130.54,-659.92 c -3.71,-18.8 -20.2,-32.36 -39.37,-32.36" /><path
         id="path206"
         style="fill:#dcdff3;fill-opacity:1;fill-rule:nonzero;stroke:none"
         d="m 5367.99,2052.79 v 0 c -9.41,0.52 -15.42,8.5 -13.43,17.83 l 8.92,41.72 c 1.99,9.33 11.23,16.48 20.64,15.96 v 0 c 9.41,-0.52 15.42,-8.51 13.43,-17.83 l -8.92,-41.72 c -1.99,-9.33 -11.23,-16.47 -20.64,-15.96" /><path
         id="path208"
         style="fill:#dcdff3;fill-opacity:1;fill-rule:nonzero;stroke:none"
         d="m 5427.2,2052.79 v 0 c -9.41,0.52 -15.42,8.5 -13.42,17.83 l 8.91,41.72 c 1.99,9.33 11.24,16.48 20.64,15.96 v 0 c 9.41,-0.52 15.42,-8.51 13.43,-17.83 l -8.92,-41.72 c -1.99,-9.33 -11.23,-16.47 -20.64,-15.96" /><path
         id="path210"
         style="fill:#dcdff3;fill-opacity:1;fill-rule:nonzero;stroke:none"
         d="m 5486.42,2052.79 v 0 c -9.42,0.52 -15.42,8.5 -13.43,17.83 l 8.91,41.72 c 2,9.33 11.23,16.48 20.65,15.96 v 0 c 9.4,-0.52 15.42,-8.51 13.43,-17.83 l -8.92,-41.72 c -1.99,-9.33 -11.24,-16.47 -20.64,-15.96" /><path
         id="path212"
         style="fill:#dcdff3;fill-opacity:1;fill-rule:nonzero;stroke:none"
         d="m 5545.63,2052.79 v 0 c -9.41,0.52 -15.42,8.5 -13.43,17.83 l 8.91,41.72 c 2,9.33 11.24,16.48 20.65,15.96 v 0 c 9.4,-0.52 15.42,-8.51 13.43,-17.83 l -8.92,-41.72 c -1.99,-9.33 -11.23,-16.47 -20.64,-15.96" /><path
         id="path214"
         style="fill:#a5d2f1;fill-opacity:1;fill-rule:nonzero;stroke:none"
         d="m 6049.03,1809.32 -83.12,489.99 h -215.34 l 30.94,-243.89 40.81,-267.96 -38.13,-26.77 h 50.09 168.02 5.67 c 12.29,0 23.89,5.39 31.81,14.78 7.94,9.39 11.31,21.73 9.25,33.85" /><path
         id="path216"
         style="fill:#5881ca;fill-opacity:1;fill-rule:nonzero;stroke:none"
         d="m 5792.62,1760.69 h -173.69 v 24.1 h 173.69 c 5.18,0 10.07,2.27 13.41,6.23 3.35,3.96 4.77,9.16 3.91,14.26 l -73.17,431.35 13.8,62.68 83.11,-489.99 c 2.06,-12.12 -1.31,-24.46 -9.24,-33.85 -7.93,-9.39 -19.53,-14.78 -31.82,-14.78" /><path
         id="path218"
         style="fill:#f14078;fill-opacity:1;fill-rule:nonzero;stroke:none"
         d="m 4170.85,2529.86 v 0 c -206.33,-98.14 -362.6,-277.6 -431.43,-495.48 l -129.61,-410.2 h 668.73 l 38.34,171.42 c 34.99,156.39 91.64,307.13 168.32,447.87 v 0 c 42.36,77.72 13.48,175.07 -64.41,217.15 l -67.8,36.62 -182.14,32.62" /><path
         id="path220"
         style="fill:#ec1f60;fill-opacity:1;fill-rule:nonzero;stroke:none"
         d="m 3977.92,2308.47 -126.43,-351.02 c -11.18,-31.05 -11.57,-64.97 -1.09,-96.28 v 0 c 20.02,-59.8 76.04,-100.13 139.11,-100.13 h 140.86 l -109.4,157.29 -43.05,390.14" /><path
         id="path222"
         style="fill:#ec1f60;fill-opacity:1;fill-rule:nonzero;stroke:none"
         d="m 4352.58,2381.59 c 0,-9.41 -5.52,-17.03 -12.33,-17.03 -6.79,0 -12.31,7.62 -12.31,17.03 0,9.41 5.52,17.03 12.31,17.03 6.81,0 12.33,-7.62 12.33,-17.03" /><path
         id="path224"
         style="fill:#ec1f60;fill-opacity:1;fill-rule:nonzero;stroke:none"
         d="m 4346.96,2306.25 c 0,-9.4 -5.51,-17.03 -12.31,-17.03 -6.81,0 -12.32,7.63 -12.32,17.03 0,9.4 5.51,17.03 12.32,17.03 6.8,0 12.31,-7.63 12.31,-17.03" /><path
         id="path226"
         style="fill:#f35f9e;fill-opacity:1;fill-rule:nonzero;stroke:none"
         d="m 4332.74,2444.9 -54.2,-68.92 -107.69,153.88 28.85,32.06 133.04,-117.02" /><path
         id="path228"
         style="fill:#f35f9e;fill-opacity:1;fill-rule:nonzero;stroke:none"
         d="m 4332.74,2444.9 52.9,-52.89 -32.65,105.23 z" /><path
         id="path230"
         style="fill:#040606;fill-opacity:1;fill-rule:nonzero;stroke:none"
         d="m 4357.38,2508.6 41.09,106.22 -155.49,46.49 -9.26,-21.28 c 7.61,-23.76 19.25,-46.22 34.7,-65.83 23.08,-29.31 54.29,-51.87 88.96,-65.6" /><path
         id="path232"
         style="fill:#f9acc1;fill-opacity:1;fill-rule:nonzero;stroke:none"
         d="m 4268.42,2574.2 c -15.45,19.61 -27.09,42.07 -34.7,65.83 l -34.02,-78.11 133.04,-117.02 24.64,63.7 c -34.67,13.73 -65.88,36.29 -88.96,65.6" /><path
         id="path234"
         style="fill:#f9acc1;fill-opacity:1;fill-rule:nonzero;stroke:none"
         d="m 4602.24,2847.96 c 13.55,-146.33 -79.61,-274.61 -208.08,-286.5 -128.48,-11.9 -243.61,97.08 -257.17,243.41 -13.55,146.33 79.61,274.6 208.09,286.5 128.46,11.9 243.6,-97.08 257.16,-243.41" /><path
         id="path236"
         style="fill:#040606;fill-opacity:1;fill-rule:nonzero;stroke:none"
         d="m 4233.72,2674.3 12.31,7.1 c 28.11,16.21 45.44,46.19 45.44,78.65 v 52.74 l 1.99,1.98 c 38.37,38.37 59.93,90.42 59.93,144.69 v 0 c 43.17,0 86.35,-0.28 127.68,12.19 41.35,12.46 80.44,36.01 105.26,71.34 33.33,47.47 37.45,117.73 -11.11,159.86 -14.78,12.83 -33.36,21.09 -52.91,22.3 -59.6,3.71 -90.43,-51.02 -136.46,-78.01 -41.22,-24.16 -91.5,-24.52 -139.17,-27.84 -47.67,-3.32 -99.22,-12.34 -131.35,-47.7 -33.87,-37.29 -36.34,-92.88 -33.42,-143.18 3.03,-52.25 10.18,-105.34 32.97,-152.45 22.81,-47.11 67.91,-89.57 118.84,-101.67" /><path
         id="path238"
         style="fill:#f9acc1;fill-opacity:1;fill-rule:nonzero;stroke:none"
         d="m 4263.82,2707.59 c 0,-38.84 -31.49,-70.33 -70.33,-70.33 -38.84,0 -70.33,31.49 -70.33,70.33 0,38.85 31.49,70.33 70.33,70.33 38.84,0 70.33,-31.48 70.33,-70.33" /><path
         id="path240"
         style="fill:#f46ba3;fill-opacity:1;fill-rule:nonzero;stroke:none"
         d="m 4226.78,2707.59 c 0,-18.38 -14.9,-33.29 -33.29,-33.29 -18.38,0 -33.28,14.91 -33.28,33.29 0,18.39 14.9,33.29 33.28,33.29 18.39,0 33.29,-14.9 33.29,-33.29" /><path
         id="path242"
         style="fill:#5881ca;fill-opacity:1;fill-rule:nonzero;stroke:none"
         d="m 4921.06,1863.03 h -180.95 v -101.99 h 325.19 v 0 c -21.61,61.13 -79.4,101.99 -144.24,101.99" /><path
         id="path244"
         style="fill:#f9acc1;fill-opacity:1;fill-rule:nonzero;stroke:none"
         d="m 4696.62,1760.69 h -628.95 c -75.14,0 -133.3,65.8 -124.1,140.37 l 58.67,474.69 c 6.34,51.37 53.32,87.74 104.64,81.02 v 0 c 51.2,-6.7 87.21,-53.75 80.3,-104.92 l -64.02,-474.4 h 573.46 v -116.76" /><path
         id="path246"
         style="fill:#f9acc1;fill-opacity:1;fill-rule:nonzero;stroke:none"
         d="m 4859.33,1914.73 62.63,27.99 c 12.6,5.64 27.34,3.33 37.62,-5.87 l 40.54,-36.36 c 6.68,-5.98 6.96,-16.34 0.62,-22.69 v 0 c -5.13,-5.13 -13.13,-6.05 -19.3,-2.21 l -45.57,28.32 -31.66,-24.86 -44.88,35.68" /><path
         id="path248"
         style="fill:#f9acc1;fill-opacity:1;fill-rule:nonzero;stroke:none"
         d="m 4696.62,1877.45 116.1,48.99 c 23.72,10 50.81,7.94 72.74,-5.51 l 32.79,-20.12 c 23.64,-14.51 38.06,-40.26 38.06,-68.01 v -26.73 c 0,-8.96 -6,-16.83 -14.64,-19.21 v 0 c -11.01,-3.04 -22.3,3.76 -24.77,14.91 l -9.49,42.82 -7.27,-64.03 c -0.78,-6.89 -5.7,-12.6 -12.4,-14.39 v 0 c -10.45,-2.8 -20.81,4.82 -21.23,15.64 l -1.58,40.34 -38.02,-29.01 c -27.58,-21.04 -61.31,-32.45 -96.01,-32.45 h -34.28 v 116.76" /><path
         id="path250"
         style="fill:#f14078;fill-opacity:1;fill-rule:nonzero;stroke:none"
         d="m 4198.13,2351.98 c 0.89,52.78 -37.96,97.81 -90.3,104.66 -53.26,6.97 -103.04,-27.86 -114.75,-80.28 l -53.96,-241.63 h 255.34 l 3.67,217.25" /><path
         id="path252"
         style="fill:#f35f9e;fill-opacity:1;fill-rule:nonzero;stroke:none"
         d="m 3939.12,2134.73 -12.89,-57.71 h 267.26 l 0.97,57.71 h -255.34" /><path
         id="path254"
         style="fill:#040606;fill-opacity:1;fill-rule:nonzero;stroke:none"
         d="m 3965.32,2077.02 184.64,-0.97 -190.89,-49.59 z" /><path
         id="path256"
         style="fill:#3b485a;fill-opacity:1;fill-rule:nonzero;stroke:none"
         d="m 3609.81,1624.18 h 978.2 c 120.89,0 221.3,-93.27 230.19,-213.83 l 54.75,-741.541 h -261.42 l -72,634.781 H 3851.8 c -167.11,0 -287.8,159.89 -241.99,320.59 v 0" /><path
         id="path258"
         style="fill:#f9acc1;fill-opacity:1;fill-rule:nonzero;stroke:none"
         d="m 4790.4,509.32 -16.72,34.012 c -3.37,6.859 0.39,15.078 7.79,17.008 l 59.42,15.5 -11.22,92.969 h -158.69 l 6.4,-99.387 -2.82,-29.641 h 84.58 l 31.26,-30.461" /><path
         id="path260"
         style="fill:#171d26;fill-opacity:1;fill-rule:nonzero;stroke:none"
         d="m 5021.18,485.43 -20.83,3.019 c -11.09,1.61 -21.75,5.383 -31.38,11.11 l -128.08,76.281 -59.42,-15.5 c -7.4,-1.93 -11.16,-10.149 -7.79,-17.008 l 16.72,-34.012 -31.26,30.461 h -84.58 l -9.16,-96.191 h 417.36 c -12.67,22.012 -34.92,37.969 -61.58,41.84" /><path
         id="path262"
         style="fill:#f0f0ee;fill-opacity:1;fill-rule:nonzero;stroke:none"
         d="m 4665.4,443.59 -4.04,-42.481 h 432.8 c 0,15.391 -4.15,29.922 -11.4,42.481 H 4665.4" /><path
         id="path264"
         style="fill:#040606;fill-opacity:1;fill-rule:nonzero;stroke:none"
         d="m 4670.98,668.809 h 158.69 l 3.4,-28.129 h -160.28 l -1.81,28.129" /><path
         id="path266"
         style="fill:#fac914;fill-opacity:1;fill-rule:nonzero;stroke:none"
         d="M 6670.68,1760.69 H 5310.73 c 26.34,0 47.69,-21.34 47.69,-47.68 0,-26.34 -21.35,-47.7 -47.69,-47.7 h 1359.95 c 26.34,0 47.69,21.36 47.69,47.7 0,26.34 -21.35,47.68 -47.69,47.68" /><path
         id="path268"
         style="fill:#f89915;fill-opacity:1;fill-rule:nonzero;stroke:none"
         d="m 5358.42,1713.01 c 0,26.34 -21.35,47.68 -47.69,47.68 h -150.6 -1186.2 c -26.34,0 -47.7,-21.34 -47.7,-47.68 0,-26.34 21.36,-47.7 47.7,-47.7 h 1186.2 150.6 c 26.34,0 47.69,21.36 47.69,47.7" /><path
         id="path270"
         style="fill:#a5d2f1;fill-opacity:1;fill-rule:nonzero;stroke:none"
         d="m 4194.46,401.109 h -71.3 V 1665.31 h 71.3 V 401.109" /><path
         id="path272"
         style="fill:#5881ca;fill-opacity:1;fill-rule:nonzero;stroke:none"
         d="m 4265.77,401.109 h -71.31 V 1665.31 h 71.31 V 401.109" /><path
         id="path274"
         style="fill:#a5d2f1;fill-opacity:1;fill-rule:nonzero;stroke:none"
         d="m 5326.15,401.109 h -71.31 V 1665.31 h 71.31 V 401.109" /><path
         id="path276"
         style="fill:#5881ca;fill-opacity:1;fill-rule:nonzero;stroke:none"
         d="m 5397.45,401.109 h -71.3 V 1665.31 h 71.3 V 401.109" /><path
         id="path278"
         style="fill:#a5d2f1;fill-opacity:1;fill-rule:nonzero;stroke:none"
         d="m 6451.52,401.109 h -71.31 V 1665.31 h 71.31 V 401.109" /><path
         id="path280"
         style="fill:#5881ca;fill-opacity:1;fill-rule:nonzero;stroke:none"
         d="m 6522.83,401.109 h -71.31 V 1665.31 h 71.31 V 401.109" /><path
         id="path282"
         style="fill:#040606;fill-opacity:1;fill-rule:nonzero;stroke:none"
         d="M 6871.21,402.309 H 635.242 c -14.933,0 -27.051,-12.098 -27.051,-27.047 0,-14.93 12.118,-27.043 27.051,-27.043 H 6871.21 c 14.94,0 27.05,12.113 27.05,27.043 0,14.949 -12.11,27.047 -27.05,27.047" /></g></g></svg>